<?xml version="1.0" encoding="UTF-8" standalone="no"?><!DOCTYPE svg PUBLIC "-//W3C//DTD SVG 1.1//EN" "http://www.w3.org/Graphics/SVG/1.1/DTD/svg11.dtd"><!-- Generated by graphviz version 2.40.1 (20161225.0304)
 --><!-- Title: dependency&#45;cruiser output Pages: 1 --><svg xmlns="http://www.w3.org/2000/svg" xmlns:xlink="http://www.w3.org/1999/xlink" width="1121pt" height="843pt" viewBox="0.00 0.00 1121.07 842.77">
<g id="graph0" class="graph" transform="scale(1 1) rotate(0) translate(4 838.7715)">
<title>dependency-cruiser output</title>
<polygon fill="#ffffff" stroke="transparent" points="-4,4 -4,-838.7715 1117.0741,-838.7715 1117.0741,4 -4,4"/>
<g id="clust1" class="cluster">
<title>cluster_src</title>
<path fill="#ffffff" stroke="#000000" stroke-width="2" d="M20,-36.7715C20,-36.7715 1093.0741,-36.7715 1093.0741,-36.7715 1099.0741,-36.7715 1105.0741,-42.7715 1105.0741,-48.7715 1105.0741,-48.7715 1105.0741,-814.7715 1105.0741,-814.7715 1105.0741,-820.7715 1099.0741,-826.7715 1093.0741,-826.7715 1093.0741,-826.7715 20,-826.7715 20,-826.7715 14,-826.7715 8,-820.7715 8,-814.7715 8,-814.7715 8,-48.7715 8,-48.7715 8,-42.7715 14,-36.7715 20,-36.7715"/>
<text text-anchor="middle" x="556.537" y="-814.6715" font-family="Helvetica,sans-Serif" font-weight="bold" font-size="9.00" fill="#000000">src</text>
</g>
<g id="clust2" class="cluster">
<title>cluster_src/components</title>
<path fill="#ffffff" stroke="#000000" stroke-width="2" d="M246.0093,-226.7715C246.0093,-226.7715 896.053,-226.7715 896.053,-226.7715 902.053,-226.7715 908.053,-232.7715 908.053,-238.7715 908.053,-238.7715 908.053,-762.7715 908.053,-762.7715 908.053,-768.7715 902.053,-774.7715 896.053,-774.7715 896.053,-774.7715 246.0093,-774.7715 246.0093,-774.7715 240.0093,-774.7715 234.0093,-768.7715 234.0093,-762.7715 234.0093,-762.7715 234.0093,-238.7715 234.0093,-238.7715 234.0093,-232.7715 240.0093,-226.7715 246.0093,-226.7715"/>
<text text-anchor="middle" x="571.0312" y="-762.6715" font-family="Helvetica,sans-Serif" font-weight="bold" font-size="9.00" fill="#000000">components</text>
</g>
<g id="clust3" class="cluster">
<title>cluster_src/components/Account</title>
<path fill="#ffffff" stroke="#000000" stroke-width="2" d="M261.2525,-478.7715C261.2525,-478.7715 443.7836,-478.7715 443.7836,-478.7715 449.7836,-478.7715 455.7836,-484.7715 455.7836,-490.7715 455.7836,-490.7715 455.7836,-581.7715 455.7836,-581.7715 455.7836,-587.7715 449.7836,-593.7715 443.7836,-593.7715 443.7836,-593.7715 261.2525,-593.7715 261.2525,-593.7715 255.2525,-593.7715 249.2525,-587.7715 249.2525,-581.7715 249.2525,-581.7715 249.2525,-490.7715 249.2525,-490.7715 249.2525,-484.7715 255.2525,-478.7715 261.2525,-478.7715"/>
<text text-anchor="middle" x="352.518" y="-581.6715" font-family="Helvetica,sans-Serif" font-weight="bold" font-size="9.00" fill="#000000">Account</text>
</g>
<g id="clust4" class="cluster">
<title>cluster_src/components/Generic</title>
<path fill="#ffffff" stroke="#000000" stroke-width="2" d="M826.0557,-333.7715C826.0557,-333.7715 888.053,-333.7715 888.053,-333.7715 894.053,-333.7715 900.053,-339.7715 900.053,-345.7715 900.053,-345.7715 900.053,-498.7715 900.053,-498.7715 900.053,-504.7715 894.053,-510.7715 888.053,-510.7715 888.053,-510.7715 826.0557,-510.7715 826.0557,-510.7715 820.0557,-510.7715 814.0557,-504.7715 814.0557,-498.7715 814.0557,-498.7715 814.0557,-345.7715 814.0557,-345.7715 814.0557,-339.7715 820.0557,-333.7715 826.0557,-333.7715"/>
<text text-anchor="middle" x="857.0544" y="-498.6715" font-family="Helvetica,sans-Serif" font-weight="bold" font-size="9.00" fill="#000000">Generic</text>
</g>
<g id="clust5" class="cluster">
<title>cluster_src/components/IconButtons</title>
<path fill="#ffffff" stroke="#000000" stroke-width="2" d="M366.5169,-601.7715C366.5169,-601.7715 533.0489,-601.7715 533.0489,-601.7715 539.0489,-601.7715 545.0489,-607.7715 545.0489,-613.7715 545.0489,-613.7715 545.0489,-735.7715 545.0489,-735.7715 545.0489,-741.7715 539.0489,-747.7715 533.0489,-747.7715 533.0489,-747.7715 366.5169,-747.7715 366.5169,-747.7715 360.5169,-747.7715 354.5169,-741.7715 354.5169,-735.7715 354.5169,-735.7715 354.5169,-613.7715 354.5169,-613.7715 354.5169,-607.7715 360.5169,-601.7715 366.5169,-601.7715"/>
<text text-anchor="middle" x="449.7829" y="-735.6715" font-family="Helvetica,sans-Serif" font-weight="bold" font-size="9.00" fill="#000000">IconButtons</text>
</g>
<g id="clust6" class="cluster">
<title>cluster_src/components/ItemForm</title>
<path fill="#ffffff" stroke="#000000" stroke-width="2" d="M262.0134,-326.7715C262.0134,-326.7715 536.0365,-326.7715 536.0365,-326.7715 542.0365,-326.7715 548.0365,-332.7715 548.0365,-338.7715 548.0365,-338.7715 548.0365,-398.7715 548.0365,-398.7715 548.0365,-404.7715 542.0365,-410.7715 536.0365,-410.7715 536.0365,-410.7715 262.0134,-410.7715 262.0134,-410.7715 256.0134,-410.7715 250.0134,-404.7715 250.0134,-398.7715 250.0134,-398.7715 250.0134,-338.7715 250.0134,-338.7715 250.0134,-332.7715 256.0134,-326.7715 262.0134,-326.7715"/>
<text text-anchor="middle" x="399.025" y="-398.6715" font-family="Helvetica,sans-Serif" font-weight="bold" font-size="9.00" fill="#000000">ItemForm</text>
</g>
<g id="clust7" class="cluster">
<title>cluster_src/components/ItemLists</title>
<path fill="#ffffff" stroke="#000000" stroke-width="2" d="M478.7889,-418.7715C478.7889,-418.7715 767.5449,-418.7715 767.5449,-418.7715 773.5449,-418.7715 779.5449,-424.7715 779.5449,-430.7715 779.5449,-430.7715 779.5449,-581.7715 779.5449,-581.7715 779.5449,-587.7715 773.5449,-593.7715 767.5449,-593.7715 767.5449,-593.7715 478.7889,-593.7715 478.7889,-593.7715 472.7889,-593.7715 466.7889,-587.7715 466.7889,-581.7715 466.7889,-581.7715 466.7889,-430.7715 466.7889,-430.7715 466.7889,-424.7715 472.7889,-418.7715 478.7889,-418.7715"/>
<text text-anchor="middle" x="623.1669" y="-581.6715" font-family="Helvetica,sans-Serif" font-weight="bold" font-size="9.00" fill="#000000">ItemLists</text>
</g>
<g id="clust8" class="cluster">
<title>cluster_src/components/ItemLists/PictureList</title>
<path fill="#ffffff" stroke="#000000" stroke-width="2" d="M568.0365,-426.7715C568.0365,-426.7715 759.5449,-426.7715 759.5449,-426.7715 765.5449,-426.7715 771.5449,-432.7715 771.5449,-438.7715 771.5449,-438.7715 771.5449,-467.7715 771.5449,-467.7715 771.5449,-473.7715 765.5449,-479.7715 759.5449,-479.7715 759.5449,-479.7715 568.0365,-479.7715 568.0365,-479.7715 562.0365,-479.7715 556.0365,-473.7715 556.0365,-467.7715 556.0365,-467.7715 556.0365,-438.7715 556.0365,-438.7715 556.0365,-432.7715 562.0365,-426.7715 568.0365,-426.7715"/>
<text text-anchor="middle" x="663.7907" y="-467.6715" font-family="Helvetica,sans-Serif" font-weight="bold" font-size="9.00" fill="#000000">PictureList</text>
</g>
<g id="clust9" class="cluster">
<title>cluster_src/components/ItemLists/TableList</title>
<path fill="#ffffff" stroke="#000000" stroke-width="2" d="M570.7855,-513.7715C570.7855,-513.7715 756.7959,-513.7715 756.7959,-513.7715 762.7959,-513.7715 768.7959,-519.7715 768.7959,-525.7715 768.7959,-525.7715 768.7959,-554.7715 768.7959,-554.7715 768.7959,-560.7715 762.7959,-566.7715 756.7959,-566.7715 756.7959,-566.7715 570.7855,-566.7715 570.7855,-566.7715 564.7855,-566.7715 558.7855,-560.7715 558.7855,-554.7715 558.7855,-554.7715 558.7855,-525.7715 558.7855,-525.7715 558.7855,-519.7715 564.7855,-513.7715 570.7855,-513.7715"/>
<text text-anchor="middle" x="663.7907" y="-554.6715" font-family="Helvetica,sans-Serif" font-weight="bold" font-size="9.00" fill="#000000">TableList</text>
</g>
<g id="clust10" class="cluster">
<title>cluster_src/components/Navigation</title>
<path fill="#ffffff" stroke="#000000" stroke-width="2" d="M254.0093,-234.7715C254.0093,-234.7715 334.5169,-234.7715 334.5169,-234.7715 340.5169,-234.7715 346.5169,-240.7715 346.5169,-246.7715 346.5169,-246.7715 346.5169,-306.7715 346.5169,-306.7715 346.5169,-312.7715 340.5169,-318.7715 334.5169,-318.7715 334.5169,-318.7715 254.0093,-318.7715 254.0093,-318.7715 248.0093,-318.7715 242.0093,-312.7715 242.0093,-306.7715 242.0093,-306.7715 242.0093,-246.7715 242.0093,-246.7715 242.0093,-240.7715 248.0093,-234.7715 254.0093,-234.7715"/>
<text text-anchor="middle" x="294.2631" y="-306.6715" font-family="Helvetica,sans-Serif" font-weight="bold" font-size="9.00" fill="#000000">Navigation</text>
</g>
<g id="clust11" class="cluster">
<title>cluster_src/firebase</title>
<path fill="#ffffff" stroke="#000000" stroke-width="2" d="M1010.0646,-471.7715C1010.0646,-471.7715 1085.0741,-471.7715 1085.0741,-471.7715 1091.0741,-471.7715 1097.0741,-477.7715 1097.0741,-483.7715 1097.0741,-483.7715 1097.0741,-543.7715 1097.0741,-543.7715 1097.0741,-549.7715 1091.0741,-555.7715 1085.0741,-555.7715 1085.0741,-555.7715 1010.0646,-555.7715 1010.0646,-555.7715 1004.0646,-555.7715 998.0646,-549.7715 998.0646,-543.7715 998.0646,-543.7715 998.0646,-483.7715 998.0646,-483.7715 998.0646,-477.7715 1004.0646,-471.7715 1010.0646,-471.7715"/>
<text text-anchor="middle" x="1047.5693" y="-543.6715" font-family="Helvetica,sans-Serif" font-weight="bold" font-size="9.00" fill="#000000">firebase</text>
</g>
<g id="clust12" class="cluster">
<title>cluster_src/hooks</title>
<path fill="#ffffff" stroke="#000000" stroke-width="2" d="M799.5449,-134.7715C799.5449,-134.7715 1072.5713,-134.7715 1072.5713,-134.7715 1078.5713,-134.7715 1084.5713,-140.7715 1084.5713,-146.7715 1084.5713,-146.7715 1084.5713,-206.7715 1084.5713,-206.7715 1084.5713,-212.7715 1078.5713,-218.7715 1072.5713,-218.7715 1072.5713,-218.7715 799.5449,-218.7715 799.5449,-218.7715 793.5449,-218.7715 787.5449,-212.7715 787.5449,-206.7715 787.5449,-206.7715 787.5449,-146.7715 787.5449,-146.7715 787.5449,-140.7715 793.5449,-134.7715 799.5449,-134.7715"/>
<text text-anchor="middle" x="936.0581" y="-206.6715" font-family="Helvetica,sans-Serif" font-weight="bold" font-size="9.00" fill="#000000">hooks</text>
</g>
<g id="clust13" class="cluster">
<title>cluster_src/styles</title>
<path fill="#ffffff" stroke="#000000" stroke-width="2" d="M164.5034,-746.7715C164.5034,-746.7715 211.5058,-746.7715 211.5058,-746.7715 217.5058,-746.7715 223.5058,-752.7715 223.5058,-758.7715 223.5058,-758.7715 223.5058,-787.7715 223.5058,-787.7715 223.5058,-793.7715 217.5058,-799.7715 211.5058,-799.7715 211.5058,-799.7715 164.5034,-799.7715 164.5034,-799.7715 158.5034,-799.7715 152.5034,-793.7715 152.5034,-787.7715 152.5034,-787.7715 152.5034,-758.7715 152.5034,-758.7715 152.5034,-752.7715 158.5034,-746.7715 164.5034,-746.7715"/>
<text text-anchor="middle" x="188.0046" y="-787.6715" font-family="Helvetica,sans-Serif" font-weight="bold" font-size="9.00" fill="#000000">styles</text>
</g>
<!-- src/App.js -->
<g id="node1" class="node">
<title>src/App.js</title>
<g id="a_node1"><a xlink:href="src/App.js" xlink:title="App.js">
<path fill="#ffffcc" stroke="#000000" d="M130.7993,-633.0726C130.7993,-633.0726 89.2007,-633.0726 89.2007,-633.0726 86.1004,-633.0726 83,-629.9722 83,-626.8719 83,-626.8719 83,-620.6712 83,-620.6712 83,-617.5708 86.1004,-614.4705 89.2007,-614.4705 89.2007,-614.4705 130.7993,-614.4705 130.7993,-614.4705 133.8996,-614.4705 137,-617.5708 137,-620.6712 137,-620.6712 137,-626.8719 137,-626.8719 137,-629.9722 133.8996,-633.0726 130.7993,-633.0726"/>
<text text-anchor="start" x="97.4967" y="-621.0715" font-family="Helvetica,sans-Serif" font-size="9.00" fill="#000000">App.js</text>
</a>
</g>
</g>
<!-- src/ContextProviders.js -->
<g id="node2" class="node">
<title>src/ContextProviders.js</title>
<g id="a_node2"><a xlink:href="src/ContextProviders.js" xlink:title="ContextProviders.js">
<path fill="#ffffcc" stroke="#000000" d="M753.3492,-77.0726C753.3492,-77.0726 671.7357,-77.0726 671.7357,-77.0726 668.6353,-77.0726 665.5349,-73.9722 665.5349,-70.8719 665.5349,-70.8719 665.5349,-64.6712 665.5349,-64.6712 665.5349,-61.5708 668.6353,-58.4705 671.7357,-58.4705 671.7357,-58.4705 753.3492,-58.4705 753.3492,-58.4705 756.4496,-58.4705 759.55,-61.5708 759.55,-64.6712 759.55,-64.6712 759.55,-70.8719 759.55,-70.8719 759.55,-73.9722 756.4496,-77.0726 753.3492,-77.0726"/>
<text text-anchor="start" x="673.5387" y="-65.0715" font-family="Helvetica,sans-Serif" font-size="9.00" fill="#000000">ContextProviders.js</text>
</a>
</g>
</g>
<!-- src/App.js&#45;&gt;src/ContextProviders.js -->
<g id="edge1" class="edge">
<title>src/App.js-&gt;src/ContextProviders.js</title>
<path fill="none" stroke="#000000" stroke-width="2" stroke-opacity="0.200000" d="M111.0117,-614.1732C119.0084,-540.7405 174.8514,-70.7715 294.2631,-70.7715 294.2631,-70.7715 294.2631,-70.7715 503.0394,-70.7715 556.2589,-70.7715 617.0751,-69.7917 659.4227,-68.9519"/>
<polygon fill="#000000" fill-opacity="0.200000" stroke="#000000" stroke-width="2" stroke-opacity="0.200000" points="659.577,-71.0494 665.5336,-68.8292 659.4926,-66.8502 659.577,-71.0494"/>
</g>
<!-- src/firebase/firebaseConfig.js -->
<g id="node3" class="node">
<title>src/firebase/firebaseConfig.js</title>
<g id="a_node3"><a xlink:href="src/firebase/firebaseConfig.js" xlink:title="firebaseConfig.js">
<path fill="#ffffcc" stroke="#000000" d="M1082.8781,-529.0726C1082.8781,-529.0726 1012.2606,-529.0726 1012.2606,-529.0726 1009.1602,-529.0726 1006.0598,-525.9722 1006.0598,-522.8719 1006.0598,-522.8719 1006.0598,-516.6712 1006.0598,-516.6712 1006.0598,-513.5708 1009.1602,-510.4705 1012.2606,-510.4705 1012.2606,-510.4705 1082.8781,-510.4705 1082.8781,-510.4705 1085.9785,-510.4705 1089.0789,-513.5708 1089.0789,-516.6712 1089.0789,-516.6712 1089.0789,-522.8719 1089.0789,-522.8719 1089.0789,-525.9722 1085.9785,-529.0726 1082.8781,-529.0726"/>
<text text-anchor="start" x="1014.0646" y="-517.0715" font-family="Helvetica,sans-Serif" font-size="9.00" fill="#000000">firebaseConfig.js</text>
</a>
</g>
</g>
<!-- src/App.js&#45;&gt;src/firebase/firebaseConfig.js -->
<g id="edge2" class="edge">
<title>src/App.js-&gt;src/firebase/firebaseConfig.js</title>
<path fill="none" stroke="#000000" stroke-width="2" stroke-opacity="0.200000" d="M118.1835,-633.1803C150.7588,-669.5296 275.8579,-798.7715 407.7796,-798.7715 407.7796,-798.7715 407.7796,-798.7715 857.0544,-798.7715 985.5384,-798.7715 1033.6338,-594.4844 1044.8391,-535.5246"/>
<polygon fill="#000000" fill-opacity="0.200000" stroke="#000000" stroke-width="2" stroke-opacity="0.200000" points="1046.9501,-535.6567 1045.9728,-529.3753 1042.8197,-534.8951 1046.9501,-535.6567"/>
</g>
<!-- src/MainContent.js -->
<g id="node4" class="node">
<title>src/MainContent.js</title>
<g id="a_node4"><a xlink:href="src/MainContent.js" xlink:title="MainContent.js">
<path fill="#ffffcc" stroke="#000000" d="M219.8132,-520.0726C219.8132,-520.0726 156.1961,-520.0726 156.1961,-520.0726 153.0957,-520.0726 149.9953,-516.9722 149.9953,-513.8719 149.9953,-513.8719 149.9953,-507.6712 149.9953,-507.6712 149.9953,-504.5708 153.0957,-501.4705 156.1961,-501.4705 156.1961,-501.4705 219.8132,-501.4705 219.8132,-501.4705 222.9136,-501.4705 226.014,-504.5708 226.014,-507.6712 226.014,-507.6712 226.014,-513.8719 226.014,-513.8719 226.014,-516.9722 222.9136,-520.0726 219.8132,-520.0726"/>
<text text-anchor="start" x="158" y="-508.0715" font-family="Helvetica,sans-Serif" font-size="9.00" fill="#000000">MainContent.js</text>
</a>
</g>
</g>
<!-- src/App.js&#45;&gt;src/MainContent.js -->
<g id="edge3" class="edge">
<title>src/App.js-&gt;src/MainContent.js</title>
<path fill="none" stroke="#000000" stroke-width="2" stroke-opacity="0.200000" d="M116.6506,-614.1372C130.2941,-594.3728 161.5282,-549.1262 177.7704,-525.5972"/>
<polygon fill="#000000" fill-opacity="0.200000" stroke="#000000" stroke-width="2" stroke-opacity="0.200000" points="179.6905,-526.5122 181.3709,-520.3814 176.234,-524.1262 179.6905,-526.5122"/>
</g>
<!-- src/styles/styles.css -->
<g id="node5" class="node">
<title>src/styles/styles.css</title>
<g id="a_node5"><a xlink:href="src/styles/styles.css" xlink:title="styles.css">
<path fill="#ffffcc" stroke="#000000" d="M209.3063,-773.0726C209.3063,-773.0726 166.703,-773.0726 166.703,-773.0726 163.6026,-773.0726 160.5022,-769.9722 160.5022,-766.8719 160.5022,-766.8719 160.5022,-760.6712 160.5022,-760.6712 160.5022,-757.5708 163.6026,-754.4705 166.703,-754.4705 166.703,-754.4705 209.3063,-754.4705 209.3063,-754.4705 212.4067,-754.4705 215.5071,-757.5708 215.5071,-760.6712 215.5071,-760.6712 215.5071,-766.8719 215.5071,-766.8719 215.5071,-769.9722 212.4067,-773.0726 209.3063,-773.0726"/>
<text text-anchor="start" x="168.5034" y="-761.0715" font-family="Helvetica,sans-Serif" font-size="9.00" fill="#000000">styles.css</text>
</a>
</g>
</g>
<!-- src/App.js&#45;&gt;src/styles/styles.css -->
<g id="edge4" class="edge">
<title>src/App.js-&gt;src/styles/styles.css</title>
<path fill="none" stroke="#000000" stroke-width="2" stroke-opacity="0.200000" d="M111.8437,-633.2937C117.1444,-659.7753 133.1289,-733.4826 150,-750.7715 151.4611,-752.2688 153.1016,-753.5936 154.8595,-754.7659"/>
<polygon fill="#000000" fill-opacity="0.200000" stroke="#000000" stroke-width="2" stroke-opacity="0.200000" points="154.1565,-756.777 160.4231,-757.8451 156.1904,-753.1023 154.1565,-756.777"/>
</g>
<!-- src/hooks/useAlert.js -->
<g id="node6" class="node">
<title>src/hooks/useAlert.js</title>
<g id="a_node6"><a xlink:href="src/hooks/useAlert.js" xlink:title="useAlert.js">
<path fill="#ffffcc" stroke="#000000" d="M1070.3725,-161.0726C1070.3725,-161.0726 1024.7662,-161.0726 1024.7662,-161.0726 1021.6658,-161.0726 1018.5654,-157.9722 1018.5654,-154.8719 1018.5654,-154.8719 1018.5654,-148.6712 1018.5654,-148.6712 1018.5654,-145.5708 1021.6658,-142.4705 1024.7662,-142.4705 1024.7662,-142.4705 1070.3725,-142.4705 1070.3725,-142.4705 1073.4729,-142.4705 1076.5733,-145.5708 1076.5733,-148.6712 1076.5733,-148.6712 1076.5733,-154.8719 1076.5733,-154.8719 1076.5733,-157.9722 1073.4729,-161.0726 1070.3725,-161.0726"/>
<text text-anchor="start" x="1026.5674" y="-149.0715" font-family="Helvetica,sans-Serif" font-size="9.00" fill="#000000">useAlert.js</text>
</a>
</g>
</g>
<!-- src/ContextProviders.js&#45;&gt;src/hooks/useAlert.js -->
<g id="edge5" class="edge">
<title>src/ContextProviders.js-&gt;src/hooks/useAlert.js</title>
<path fill="none" stroke="#000000" stroke-width="2" stroke-opacity="0.200000" d="M759.7975,-61.0035C801.959,-56.3954 865.1078,-53.0307 918.5639,-64.7715 952.7485,-72.2796 961.0445,-78.2065 990.0646,-97.7715 1007.1547,-109.2935 1024.0251,-125.9313 1035.0276,-137.6878"/>
<polygon fill="#000000" fill-opacity="0.200000" stroke="#000000" stroke-width="2" stroke-opacity="0.200000" points="1033.7573,-139.4083 1039.3671,-142.3983 1036.8462,-136.5625 1033.7573,-139.4083"/>
</g>
<!-- src/hooks/useItems.js -->
<g id="node7" class="node">
<title>src/hooks/useItems.js</title>
<g id="a_node7"><a xlink:href="src/hooks/useItems.js" xlink:title="useItems.js">
<path fill="#ffffcc" stroke="#000000" d="M881.3615,-161.0726C881.3615,-161.0726 832.7473,-161.0726 832.7473,-161.0726 829.647,-161.0726 826.5466,-157.9722 826.5466,-154.8719 826.5466,-154.8719 826.5466,-148.6712 826.5466,-148.6712 826.5466,-145.5708 829.647,-142.4705 832.7473,-142.4705 832.7473,-142.4705 881.3615,-142.4705 881.3615,-142.4705 884.4618,-142.4705 887.5622,-145.5708 887.5622,-148.6712 887.5622,-148.6712 887.5622,-154.8719 887.5622,-154.8719 887.5622,-157.9722 884.4618,-161.0726 881.3615,-161.0726"/>
<text text-anchor="start" x="834.3015" y="-149.0715" font-family="Helvetica,sans-Serif" font-size="9.00" fill="#000000">useItems.js</text>
</a>
</g>
</g>
<!-- src/ContextProviders.js&#45;&gt;src/hooks/useItems.js -->
<g id="edge6" class="edge">
<title>src/ContextProviders.js-&gt;src/hooks/useItems.js</title>
<path fill="none" stroke="#000000" stroke-width="2" stroke-opacity="0.200000" d="M725.6901,-77.2152C740.0225,-87.9257 763.1043,-106.4288 779.5449,-125.7715 783.9385,-130.9407 781.9534,-134.9296 787.5449,-138.7715 797.0215,-145.2829 808.8675,-148.7699 820.0809,-150.574"/>
<polygon fill="#000000" fill-opacity="0.200000" stroke="#000000" stroke-width="2" stroke-opacity="0.200000" points="819.9977,-152.682 826.2264,-151.4116 820.565,-148.5205 819.9977,-152.682"/>
</g>
<!-- src/hooks/useUser.js -->
<g id="node8" class="node">
<title>src/hooks/useUser.js</title>
<g id="a_node8"><a xlink:href="src/hooks/useUser.js" xlink:title="useUser.js">
<path fill="#ffffcc" stroke="#000000" d="M983.6164,-161.0726C983.6164,-161.0726 938.0121,-161.0726 938.0121,-161.0726 934.9118,-161.0726 931.8114,-157.9722 931.8114,-154.8719 931.8114,-154.8719 931.8114,-148.6712 931.8114,-148.6712 931.8114,-145.5708 934.9118,-142.4705 938.0121,-142.4705 938.0121,-142.4705 983.6164,-142.4705 983.6164,-142.4705 986.7167,-142.4705 989.8171,-145.5708 989.8171,-148.6712 989.8171,-148.6712 989.8171,-154.8719 989.8171,-154.8719 989.8171,-157.9722 986.7167,-161.0726 983.6164,-161.0726"/>
<text text-anchor="start" x="939.5639" y="-149.0715" font-family="Helvetica,sans-Serif" font-size="9.00" fill="#000000">useUser.js</text>
</a>
</g>
</g>
<!-- src/ContextProviders.js&#45;&gt;src/hooks/useUser.js -->
<g id="edge7" class="edge">
<title>src/ContextProviders.js-&gt;src/hooks/useUser.js</title>
<path fill="none" stroke="#000000" stroke-width="2" stroke-opacity="0.200000" d="M759.774,-65.2279C813.1273,-63.3976 895.5369,-64.0551 918.5639,-83.7715 936.2274,-98.8956 918.5856,-116.5842 931.4476,-137.2403"/>
<polygon fill="#000000" fill-opacity="0.200000" stroke="#000000" stroke-width="2" stroke-opacity="0.200000" points="929.9074,-138.6895 935.163,-142.2657 933.2846,-136.1926 929.9074,-138.6895"/>
</g>
<!-- src/MainContent.js&#45;&gt;src/hooks/useUser.js -->
<g id="edge16" class="edge">
<title>src/MainContent.js-&gt;src/hooks/useUser.js</title>
<path fill="none" stroke="#000000" stroke-width="2" stroke-opacity="0.200000" d="M188.3479,-520.1792C189.7734,-547.505 197.0597,-628.2599 234.0093,-680.7715 285.8046,-754.3814 317.7732,-784.7715 407.7796,-784.7715 407.7796,-784.7715 407.7796,-784.7715 712.5424,-784.7715 825.0263,-784.7715 873.717,-740.9285 918.5639,-637.7715 938.8705,-591.0623 904.5809,-231.9513 931.7702,-166.6448"/>
<polygon fill="#000000" fill-opacity="0.200000" stroke="#000000" stroke-width="2" stroke-opacity="0.200000" points="933.6664,-167.5507 934.5972,-161.2623 929.9481,-165.5977 933.6664,-167.5507"/>
</g>
<!-- src/components/Account/LoginPage.js -->
<g id="node9" class="node">
<title>src/components/Account/LoginPage.js</title>
<g id="a_node9"><a xlink:href="src/components/Account/LoginPage.js" xlink:title="LoginPage.js">
<path fill="#ffffcc" stroke="#000000" d="M322.0815,-567.0726C322.0815,-567.0726 266.4447,-567.0726 266.4447,-567.0726 263.3443,-567.0726 260.244,-563.9722 260.244,-560.8719 260.244,-560.8719 260.244,-554.6712 260.244,-554.6712 260.244,-551.5708 263.3443,-548.4705 266.4447,-548.4705 266.4447,-548.4705 322.0815,-548.4705 322.0815,-548.4705 325.1819,-548.4705 328.2822,-551.5708 328.2822,-554.6712 328.2822,-554.6712 328.2822,-560.8719 328.2822,-560.8719 328.2822,-563.9722 325.1819,-567.0726 322.0815,-567.0726"/>
<text text-anchor="start" x="268.2535" y="-555.0715" font-family="Helvetica,sans-Serif" font-size="9.00" fill="#000000">LoginPage.js</text>
</a>
</g>
</g>
<!-- src/MainContent.js&#45;&gt;src/components/Account/LoginPage.js -->
<g id="edge8" class="edge">
<title>src/MainContent.js-&gt;src/components/Account/LoginPage.js</title>
<path fill="none" stroke="#000000" stroke-width="2" stroke-opacity="0.200000" d="M199.4654,-520.0877C208.4039,-526.9455 221.3816,-536.0373 234.0093,-541.7715 240.2717,-544.6152 247.1378,-547.0331 253.922,-549.0612"/>
<polygon fill="#000000" fill-opacity="0.200000" stroke="#000000" stroke-width="2" stroke-opacity="0.200000" points="253.7644,-551.1992 260.1097,-550.8153 254.9099,-547.1584 253.7644,-551.1992"/>
</g>
<!-- src/components/Account/SignupPage.js -->
<g id="node10" class="node">
<title>src/components/Account/SignupPage.js</title>
<g id="a_node10"><a xlink:href="src/components/Account/SignupPage.js" xlink:title="SignupPage.js">
<path fill="#ffffcc" stroke="#000000" d="M325.0836,-505.0726C325.0836,-505.0726 263.4426,-505.0726 263.4426,-505.0726 260.3422,-505.0726 257.2419,-501.9722 257.2419,-498.8719 257.2419,-498.8719 257.2419,-492.6712 257.2419,-492.6712 257.2419,-489.5708 260.3422,-486.4705 263.4426,-486.4705 263.4426,-486.4705 325.0836,-486.4705 325.0836,-486.4705 328.184,-486.4705 331.2843,-489.5708 331.2843,-492.6712 331.2843,-492.6712 331.2843,-498.8719 331.2843,-498.8719 331.2843,-501.9722 328.184,-505.0726 325.0836,-505.0726"/>
<text text-anchor="start" x="265.2525" y="-493.0715" font-family="Helvetica,sans-Serif" font-size="9.00" fill="#000000">SignupPage.js</text>
</a>
</g>
</g>
<!-- src/MainContent.js&#45;&gt;src/components/Account/SignupPage.js -->
<g id="edge9" class="edge">
<title>src/MainContent.js-&gt;src/components/Account/SignupPage.js</title>
<path fill="none" stroke="#000000" stroke-width="2" stroke-opacity="0.200000" d="M226.0663,-505.3985C234.1335,-504.2597 242.7059,-503.0496 250.9515,-501.8856"/>
<polygon fill="#000000" fill-opacity="0.200000" stroke="#000000" stroke-width="2" stroke-opacity="0.200000" points="251.5319,-503.9246 257.1795,-501.0064 250.9448,-499.7658 251.5319,-503.9246"/>
</g>
<!-- src/components/Account/UserPage.js -->
<g id="node11" class="node">
<title>src/components/Account/UserPage.js</title>
<g id="a_node11"><a xlink:href="src/components/Account/UserPage.js" xlink:title="UserPage.js">
<path fill="#ffffcc" stroke="#000000" d="M320.5683,-536.0726C320.5683,-536.0726 267.9579,-536.0726 267.9579,-536.0726 264.8576,-536.0726 261.7572,-532.9722 261.7572,-529.8719 261.7572,-529.8719 261.7572,-523.6712 261.7572,-523.6712 261.7572,-520.5708 264.8576,-517.4705 267.9579,-517.4705 267.9579,-517.4705 320.5683,-517.4705 320.5683,-517.4705 323.6686,-517.4705 326.769,-520.5708 326.769,-523.6712 326.769,-523.6712 326.769,-529.8719 326.769,-529.8719 326.769,-532.9722 323.6686,-536.0726 320.5683,-536.0726"/>
<text text-anchor="start" x="269.7601" y="-524.0715" font-family="Helvetica,sans-Serif" font-size="9.00" fill="#000000">UserPage.js</text>
</a>
</g>
</g>
<!-- src/MainContent.js&#45;&gt;src/components/Account/UserPage.js -->
<g id="edge10" class="edge">
<title>src/MainContent.js-&gt;src/components/Account/UserPage.js</title>
<path fill="none" stroke="#000000" stroke-width="2" stroke-opacity="0.200000" d="M226.0663,-516.5027C235.6408,-517.9444 245.9271,-519.4933 255.534,-520.9398"/>
<polygon fill="#000000" fill-opacity="0.200000" stroke="#000000" stroke-width="2" stroke-opacity="0.200000" points="255.4888,-523.0566 261.7346,-521.8735 256.1142,-518.9034 255.4888,-523.0566"/>
</g>
<!-- src/components/ItemForm/ItemCreator.js -->
<g id="node12" class="node">
<title>src/components/ItemForm/ItemCreator.js</title>
<g id="a_node12"><a xlink:href="src/components/ItemForm/ItemCreator.js" xlink:title="ItemCreator.js">
<path fill="#ffffcc" stroke="#000000" d="M324.5634,-384.0726C324.5634,-384.0726 263.9628,-384.0726 263.9628,-384.0726 260.8624,-384.0726 257.7621,-380.9722 257.7621,-377.8719 257.7621,-377.8719 257.7621,-371.6712 257.7621,-371.6712 257.7621,-368.5708 260.8624,-365.4705 263.9628,-365.4705 263.9628,-365.4705 324.5634,-365.4705 324.5634,-365.4705 327.6638,-365.4705 330.7641,-368.5708 330.7641,-371.6712 330.7641,-371.6712 330.7641,-377.8719 330.7641,-377.8719 330.7641,-380.9722 327.6638,-384.0726 324.5634,-384.0726"/>
<text text-anchor="start" x="266.0134" y="-372.0715" font-family="Helvetica,sans-Serif" font-size="9.00" fill="#000000">ItemCreator.js</text>
</a>
</g>
</g>
<!-- src/MainContent.js&#45;&gt;src/components/ItemForm/ItemCreator.js -->
<g id="edge11" class="edge">
<title>src/MainContent.js-&gt;src/components/ItemForm/ItemCreator.js</title>
<path fill="none" stroke="#000000" stroke-width="2" stroke-opacity="0.200000" d="M195.3082,-501.4237C213.5826,-478.0344 261.3748,-416.8652 283.1569,-388.9863"/>
<polygon fill="#000000" fill-opacity="0.200000" stroke="#000000" stroke-width="2" stroke-opacity="0.200000" points="284.8691,-390.2057 286.9084,-384.1848 281.5595,-387.6199 284.8691,-390.2057"/>
</g>
<!-- src/components/ItemForm/ItemEditor.js -->
<g id="node13" class="node">
<title>src/components/ItemForm/ItemEditor.js</title>
<g id="a_node13"><a xlink:href="src/components/ItemForm/ItemEditor.js" xlink:title="ItemEditor.js">
<path fill="#ffffcc" stroke="#000000" d="M321.0646,-353.0726C321.0646,-353.0726 267.4616,-353.0726 267.4616,-353.0726 264.3613,-353.0726 261.2609,-349.9722 261.2609,-346.8719 261.2609,-346.8719 261.2609,-340.6712 261.2609,-340.6712 261.2609,-337.5708 264.3613,-334.4705 267.4616,-334.4705 267.4616,-334.4705 321.0646,-334.4705 321.0646,-334.4705 324.1649,-334.4705 327.2653,-337.5708 327.2653,-340.6712 327.2653,-340.6712 327.2653,-346.8719 327.2653,-346.8719 327.2653,-349.9722 324.1649,-353.0726 321.0646,-353.0726"/>
<text text-anchor="start" x="269.262" y="-341.0715" font-family="Helvetica,sans-Serif" font-size="9.00" fill="#000000">ItemEditor.js</text>
</a>
</g>
</g>
<!-- src/MainContent.js&#45;&gt;src/components/ItemForm/ItemEditor.js -->
<g id="edge12" class="edge">
<title>src/MainContent.js-&gt;src/components/ItemForm/ItemEditor.js</title>
<path fill="none" stroke="#000000" stroke-width="2" stroke-opacity="0.200000" d="M189.6844,-501.1369C195.1041,-471.1117 213.0016,-380.0326 234.0093,-359.7715 239.8448,-354.1434 247.424,-350.4391 255.2269,-348.0145"/>
<polygon fill="#000000" fill-opacity="0.200000" stroke="#000000" stroke-width="2" stroke-opacity="0.200000" points="255.9667,-349.9901 261.2123,-346.3992 254.8724,-345.9351 255.9667,-349.9901"/>
</g>
<!-- src/components/ItemLists/ItemList.js -->
<g id="node14" class="node">
<title>src/components/ItemLists/ItemList.js</title>
<g id="a_node14"><a xlink:href="src/components/ItemLists/ItemList.js" xlink:title="ItemList.js">
<path fill="#ffffcc" stroke="#000000" d="M524.8418,-506.0726C524.8418,-506.0726 481.237,-506.0726 481.237,-506.0726 478.1367,-506.0726 475.0363,-502.9722 475.0363,-499.8719 475.0363,-499.8719 475.0363,-493.6712 475.0363,-493.6712 475.0363,-490.5708 478.1367,-487.4705 481.237,-487.4705 481.237,-487.4705 524.8418,-487.4705 524.8418,-487.4705 527.9421,-487.4705 531.0425,-490.5708 531.0425,-493.6712 531.0425,-493.6712 531.0425,-499.8719 531.0425,-499.8719 531.0425,-502.9722 527.9421,-506.0726 524.8418,-506.0726"/>
<text text-anchor="start" x="482.7889" y="-494.0715" font-family="Helvetica,sans-Serif" font-size="9.00" fill="#000000">ItemList.js</text>
</a>
</g>
</g>
<!-- src/MainContent.js&#45;&gt;src/components/ItemLists/ItemList.js -->
<g id="edge13" class="edge">
<title>src/MainContent.js-&gt;src/components/ItemLists/ItemList.js</title>
<path fill="none" stroke="#000000" stroke-width="2" stroke-opacity="0.200000" d="M192.317,-520.366C217.7521,-575.7792 350.6617,-849.0377 455.7836,-750.7715 468.1495,-739.2121 462.5522,-615.3351 466.0423,-598.7715 472.8004,-566.699 487.4634,-531.1036 496.1636,-511.5909"/>
<polygon fill="#000000" fill-opacity="0.200000" stroke="#000000" stroke-width="2" stroke-opacity="0.200000" points="498.0998,-512.4058 498.6568,-506.0733 494.2724,-510.6763 498.0998,-512.4058"/>
</g>
<!-- src/components/Navigation/LoginRedirector.js -->
<g id="node15" class="node">
<title>src/components/Navigation/LoginRedirector.js</title>
<g id="a_node15"><a xlink:href="src/components/Navigation/LoginRedirector.js" xlink:title="LoginRedirector.js">
<path fill="#ffffcc" stroke="#000000" d="M332.0714,-261.0726C332.0714,-261.0726 256.4548,-261.0726 256.4548,-261.0726 253.3545,-261.0726 250.2541,-257.9722 250.2541,-254.8719 250.2541,-254.8719 250.2541,-248.6712 250.2541,-248.6712 250.2541,-245.5708 253.3545,-242.4705 256.4548,-242.4705 256.4548,-242.4705 332.0714,-242.4705 332.0714,-242.4705 335.1717,-242.4705 338.2721,-245.5708 338.2721,-248.6712 338.2721,-248.6712 338.2721,-254.8719 338.2721,-254.8719 338.2721,-257.9722 335.1717,-261.0726 332.0714,-261.0726"/>
<text text-anchor="start" x="258.0093" y="-249.0715" font-family="Helvetica,sans-Serif" font-size="9.00" fill="#000000">LoginRedirector.js</text>
</a>
</g>
</g>
<!-- src/MainContent.js&#45;&gt;src/components/Navigation/LoginRedirector.js -->
<g id="edge14" class="edge">
<title>src/MainContent.js-&gt;src/components/Navigation/LoginRedirector.js</title>
<path fill="none" stroke="#000000" stroke-width="2" stroke-opacity="0.200000" d="M188.4756,-501.4464C190.695,-461.1989 201.405,-302.8278 234.0093,-267.7715 237.0498,-264.5023 240.6749,-261.8712 244.6173,-259.7575"/>
<polygon fill="#000000" fill-opacity="0.200000" stroke="#000000" stroke-width="2" stroke-opacity="0.200000" points="245.6053,-261.6142 250.1647,-257.1845 243.838,-257.8041 245.6053,-261.6142"/>
</g>
<!-- src/components/Navigation/Navbar.js -->
<g id="node16" class="node">
<title>src/components/Navigation/Navbar.js</title>
<g id="a_node16"><a xlink:href="src/components/Navigation/Navbar.js" xlink:title="Navbar.js">
<path fill="#ffffcc" stroke="#000000" d="M315.0631,-292.0726C315.0631,-292.0726 273.4631,-292.0726 273.4631,-292.0726 270.3628,-292.0726 267.2624,-288.9722 267.2624,-285.8719 267.2624,-285.8719 267.2624,-279.6712 267.2624,-279.6712 267.2624,-276.5708 270.3628,-273.4705 273.4631,-273.4705 273.4631,-273.4705 315.0631,-273.4705 315.0631,-273.4705 318.1634,-273.4705 321.2638,-276.5708 321.2638,-279.6712 321.2638,-279.6712 321.2638,-285.8719 321.2638,-285.8719 321.2638,-288.9722 318.1634,-292.0726 315.0631,-292.0726"/>
<text text-anchor="start" x="275.2627" y="-280.0715" font-family="Helvetica,sans-Serif" font-size="9.00" fill="#000000">Navbar.js</text>
</a>
</g>
</g>
<!-- src/MainContent.js&#45;&gt;src/components/Navigation/Navbar.js -->
<g id="edge15" class="edge">
<title>src/MainContent.js-&gt;src/components/Navigation/Navbar.js</title>
<path fill="none" stroke="#000000" stroke-width="2" stroke-opacity="0.200000" d="M189.4412,-501.1479C194.6471,-467.2115 213.3098,-353.561 234.0093,-323.7715 242.4618,-311.6072 255.7843,-301.9942 267.7551,-295.143"/>
<polygon fill="#000000" fill-opacity="0.200000" stroke="#000000" stroke-width="2" stroke-opacity="0.200000" points="268.8872,-296.9172 273.1376,-292.1903 266.8671,-293.2349 268.8872,-296.9172"/>
</g>
<!-- src/components/Generic/AlertBox.js -->
<g id="node21" class="node">
<title>src/components/Generic/AlertBox.js</title>
<g id="a_node21"><a xlink:href="src/components/Generic/AlertBox.js" xlink:title="AlertBox.js">
<path fill="#ffffcc" stroke="#000000" d="M880.3566,-484.0726C880.3566,-484.0726 833.7522,-484.0726 833.7522,-484.0726 830.6519,-484.0726 827.5515,-480.9722 827.5515,-477.8719 827.5515,-477.8719 827.5515,-471.6712 827.5515,-471.6712 827.5515,-468.5708 830.6519,-465.4705 833.7522,-465.4705 833.7522,-465.4705 880.3566,-465.4705 880.3566,-465.4705 883.4569,-465.4705 886.5573,-468.5708 886.5573,-471.6712 886.5573,-471.6712 886.5573,-477.8719 886.5573,-477.8719 886.5573,-480.9722 883.4569,-484.0726 880.3566,-484.0726"/>
<text text-anchor="start" x="835.5529" y="-472.0715" font-family="Helvetica,sans-Serif" font-size="9.00" fill="#000000">AlertBox.js</text>
</a>
</g>
</g>
<!-- src/hooks/useAlert.js&#45;&gt;src/components/Generic/AlertBox.js -->
<g id="edge62" class="edge">
<title>src/hooks/useAlert.js-&gt;src/components/Generic/AlertBox.js</title>
<path fill="none" stroke="#000000" stroke-width="2" stroke-opacity="0.200000" d="M1044.8607,-161.2561C1037.5925,-186.1421 1016.4129,-255.0922 990.0646,-308.7715 968.5483,-352.6065 950.2583,-356.6607 931.5639,-401.7715 921.6163,-425.7758 936.6573,-440.1224 918.5639,-458.7715 911.6921,-465.8544 902.1142,-469.9412 892.5598,-472.2608"/>
<polygon fill="#000000" fill-opacity="0.200000" stroke="#000000" stroke-width="2" stroke-opacity="0.200000" points="892.0874,-470.214 886.6383,-473.4877 892.9396,-474.3266 892.0874,-470.214"/>
</g>
<!-- src/hooks/useItems.js&#45;&gt;src/hooks/useAlert.js -->
<g id="edge63" class="edge">
<title>src/hooks/useItems.js-&gt;src/hooks/useAlert.js</title>
<path fill="none" stroke="#000000" stroke-width="2" stroke-opacity="0.200000" d="M887.6602,-159.3589C901.0457,-162.3061 916.9894,-165.319 931.5639,-166.7715 957.436,-169.3499 964.2756,-170.0797 990.0646,-166.7715 997.3401,-165.8382 1005.0096,-164.2665 1012.2931,-162.4828"/>
<polygon fill="#000000" fill-opacity="0.200000" stroke="#000000" stroke-width="2" stroke-opacity="0.200000" points="1013.0117,-164.4667 1018.3033,-160.9441 1011.9699,-160.3979 1013.0117,-164.4667"/>
</g>
<!-- src/hooks/useItems.js&#45;&gt;src/hooks/useUser.js -->
<g id="edge64" class="edge">
<title>src/hooks/useItems.js-&gt;src/hooks/useUser.js</title>
<path fill="none" stroke="#000000" stroke-width="2" stroke-opacity="0.200000" d="M887.6246,-151.7715C899.4346,-151.7715 913.0277,-151.7715 925.2696,-151.7715"/>
<polygon fill="#000000" fill-opacity="0.200000" stroke="#000000" stroke-width="2" stroke-opacity="0.200000" points="925.5315,-153.8716 931.5315,-151.7715 925.5315,-149.6716 925.5315,-153.8716"/>
</g>
<!-- src/hooks/useUser.js&#45;&gt;src/hooks/useAlert.js -->
<g id="edge66" class="edge">
<title>src/hooks/useUser.js-&gt;src/hooks/useAlert.js</title>
<path fill="none" stroke="#000000" stroke-width="2" stroke-opacity="0.200000" d="M990.1856,-151.7715C997.3287,-151.7715 1005.0394,-151.7715 1012.4202,-151.7715"/>
<polygon fill="#000000" fill-opacity="0.200000" stroke="#000000" stroke-width="2" stroke-opacity="0.200000" points="1012.5229,-153.8716 1018.5228,-151.7715 1012.5228,-149.6716 1012.5229,-153.8716"/>
</g>
<!-- src/firebase/firebaseAuth.js -->
<g id="node36" class="node">
<title>src/firebase/firebaseAuth.js</title>
<g id="a_node36"><a xlink:href="src/firebase/firebaseAuth.js" xlink:title="firebaseAuth.js">
<path fill="#ffffcc" stroke="#000000" d="M1078.8845,-498.0726C1078.8845,-498.0726 1016.2542,-498.0726 1016.2542,-498.0726 1013.1538,-498.0726 1010.0535,-494.9722 1010.0535,-491.8719 1010.0535,-491.8719 1010.0535,-485.6712 1010.0535,-485.6712 1010.0535,-482.5708 1013.1538,-479.4705 1016.2542,-479.4705 1016.2542,-479.4705 1078.8845,-479.4705 1078.8845,-479.4705 1081.9849,-479.4705 1085.0852,-482.5708 1085.0852,-485.6712 1085.0852,-485.6712 1085.0852,-491.8719 1085.0852,-491.8719 1085.0852,-494.9722 1081.9849,-498.0726 1078.8845,-498.0726"/>
<text text-anchor="start" x="1017.8122" y="-486.0715" font-family="Helvetica,sans-Serif" font-size="9.00" fill="#000000">firebaseAuth.js</text>
</a>
</g>
</g>
<!-- src/hooks/useUser.js&#45;&gt;src/firebase/firebaseAuth.js -->
<g id="edge65" class="edge">
<title>src/hooks/useUser.js-&gt;src/firebase/firebaseAuth.js</title>
<path fill="none" stroke="#000000" stroke-width="2" stroke-opacity="0.200000" d="M986.6071,-161.1653C987.8909,-162.2426 989.061,-163.4403 990.0646,-164.7715 997.7647,-174.9849 996.0093,-209.1469 998.0646,-221.7715 1013.6684,-317.6175 1036.2115,-432.0816 1044.4252,-473.1525"/>
<polygon fill="#000000" fill-opacity="0.200000" stroke="#000000" stroke-width="2" stroke-opacity="0.200000" points="1042.379,-473.6295 1045.6172,-479.0998 1046.4971,-472.8041 1042.379,-473.6295"/>
</g>
<!-- src/components/Account/LoginPage.js&#45;&gt;src/hooks/useUser.js -->
<g id="edge17" class="edge">
<title>src/components/Account/LoginPage.js-&gt;src/hooks/useUser.js</title>
<path fill="none" stroke="#000000" stroke-width="2" stroke-opacity="0.200000" d="M328.4933,-559.7791C335.4155,-561.8043 341.9589,-565.2002 346.5169,-570.7715 359.1935,-586.2665 341.0078,-735.9967 354.5169,-750.7715 376.9893,-775.3494 469.7365,-770.7715 503.0394,-770.7715 503.0394,-770.7715 503.0394,-770.7715 712.5424,-770.7715 858.9354,-770.7715 867.4752,-650.9605 918.5639,-513.7715 931.5506,-478.8981 911.5848,-219.5084 931.7931,-166.8595"/>
<polygon fill="#000000" fill-opacity="0.200000" stroke="#000000" stroke-width="2" stroke-opacity="0.200000" points="933.7841,-167.5751 934.6122,-161.2724 930.0344,-165.6831 933.7841,-167.5751"/>
</g>
<!-- src/components/IconButtons/GithubButton.js -->
<g id="node17" class="node">
<title>src/components/IconButtons/GithubButton.js</title>
<g id="a_node17"><a xlink:href="src/components/IconButtons/GithubButton.js" xlink:title="GithubButton.js">
<path fill="#ffffcc" stroke="#000000" d="M440.1008,-659.0726C440.1008,-659.0726 375.4584,-659.0726 375.4584,-659.0726 372.3581,-659.0726 369.2577,-655.9722 369.2577,-652.8719 369.2577,-652.8719 369.2577,-646.6712 369.2577,-646.6712 369.2577,-643.5708 372.3581,-640.4705 375.4584,-640.4705 375.4584,-640.4705 440.1008,-640.4705 440.1008,-640.4705 443.2011,-640.4705 446.3015,-643.5708 446.3015,-646.6712 446.3015,-646.6712 446.3015,-652.8719 446.3015,-652.8719 446.3015,-655.9722 443.2011,-659.0726 440.1008,-659.0726"/>
<text text-anchor="start" x="377.0194" y="-647.0715" font-family="Helvetica,sans-Serif" font-size="9.00" fill="#000000">GithubButton.js</text>
</a>
</g>
</g>
<!-- src/components/Account/LoginPage.js&#45;&gt;src/components/IconButtons/GithubButton.js -->
<g id="edge18" class="edge">
<title>src/components/Account/LoginPage.js-&gt;src/components/IconButtons/GithubButton.js</title>
<path fill="none" stroke="#000000" stroke-width="2" stroke-opacity="0.200000" d="M328.4346,-560.1387C335.2739,-562.1583 341.7968,-565.4613 346.5169,-570.7715 365.2683,-591.8672 336.277,-612.2321 354.5169,-633.7715 357.0556,-636.7695 360.1328,-639.2186 363.5131,-641.2177"/>
<polygon fill="#000000" fill-opacity="0.200000" stroke="#000000" stroke-width="2" stroke-opacity="0.200000" points="362.7376,-643.1784 369.0408,-644.0028 364.6275,-639.4276 362.7376,-643.1784"/>
</g>
<!-- src/components/IconButtons/GoogleButton.js -->
<g id="node18" class="node">
<title>src/components/IconButtons/GoogleButton.js</title>
<g id="a_node18"><a xlink:href="src/components/IconButtons/GoogleButton.js" xlink:title="GoogleButton.js">
<path fill="#ffffcc" stroke="#000000" d="M441.6013,-628.0726C441.6013,-628.0726 373.9579,-628.0726 373.9579,-628.0726 370.8575,-628.0726 367.7572,-624.9722 367.7572,-621.8719 367.7572,-621.8719 367.7572,-615.6712 367.7572,-615.6712 367.7572,-612.5708 370.8575,-609.4705 373.9579,-609.4705 373.9579,-609.4705 441.6013,-609.4705 441.6013,-609.4705 444.7017,-609.4705 447.802,-612.5708 447.802,-615.6712 447.802,-615.6712 447.802,-621.8719 447.802,-621.8719 447.802,-624.9722 444.7017,-628.0726 441.6013,-628.0726"/>
<text text-anchor="start" x="375.7684" y="-616.0715" font-family="Helvetica,sans-Serif" font-size="9.00" fill="#000000">GoogleButton.js</text>
</a>
</g>
</g>
<!-- src/components/Account/LoginPage.js&#45;&gt;src/components/IconButtons/GoogleButton.js -->
<g id="edge19" class="edge">
<title>src/components/Account/LoginPage.js-&gt;src/components/IconButtons/GoogleButton.js</title>
<path fill="none" stroke="#000000" stroke-width="2" stroke-opacity="0.200000" d="M328.3255,-560.9291C335.008,-562.9227 341.4934,-566.0154 346.5169,-570.7715 355.2964,-579.0837 346.3754,-587.8335 354.5169,-596.7715 358.0518,-600.6523 362.3751,-603.8664 367.0152,-606.5242"/>
<polygon fill="#000000" fill-opacity="0.200000" stroke="#000000" stroke-width="2" stroke-opacity="0.200000" points="366.2844,-608.5101 372.5794,-609.3952 368.2103,-604.7777 366.2844,-608.5101"/>
</g>
<!-- src/components/IconButtons/TwitterButton.js -->
<g id="node19" class="node">
<title>src/components/IconButtons/TwitterButton.js</title>
<g id="a_node19"><a xlink:href="src/components/IconButtons/TwitterButton.js" xlink:title="TwitterButton.js">
<path fill="#ffffcc" stroke="#000000" d="M440.5844,-721.0726C440.5844,-721.0726 374.9748,-721.0726 374.9748,-721.0726 371.8745,-721.0726 368.7741,-717.9722 368.7741,-714.8719 368.7741,-714.8719 368.7741,-708.6712 368.7741,-708.6712 368.7741,-705.5708 371.8745,-702.4705 374.9748,-702.4705 374.9748,-702.4705 440.5844,-702.4705 440.5844,-702.4705 443.6847,-702.4705 446.7851,-705.5708 446.7851,-708.6712 446.7851,-708.6712 446.7851,-714.8719 446.7851,-714.8719 446.7851,-717.9722 443.6847,-721.0726 440.5844,-721.0726"/>
<text text-anchor="start" x="376.7768" y="-709.0715" font-family="Helvetica,sans-Serif" font-size="9.00" fill="#000000">TwitterButton.js</text>
</a>
</g>
</g>
<!-- src/components/Account/LoginPage.js&#45;&gt;src/components/IconButtons/TwitterButton.js -->
<g id="edge20" class="edge">
<title>src/components/Account/LoginPage.js-&gt;src/components/IconButtons/TwitterButton.js</title>
<path fill="none" stroke="#000000" stroke-width="2" stroke-opacity="0.200000" d="M328.414,-559.8447C335.3398,-561.8668 341.9048,-565.2449 346.5169,-570.7715 364.3511,-592.1422 337.2005,-673.9791 354.5169,-695.7715 356.9214,-698.7976 359.8764,-701.2685 363.1508,-703.2839"/>
<polygon fill="#000000" fill-opacity="0.200000" stroke="#000000" stroke-width="2" stroke-opacity="0.200000" points="362.2353,-705.1749 368.526,-706.0903 364.1792,-701.4518 362.2353,-705.1749"/>
</g>
<!-- src/components/Account/SignupPage.js&#45;&gt;src/hooks/useAlert.js -->
<g id="edge21" class="edge">
<title>src/components/Account/SignupPage.js-&gt;src/hooks/useAlert.js</title>
<path fill="none" stroke="#000000" stroke-width="2" stroke-opacity="0.200000" d="M302.9949,-486.0642C315.4064,-471.5635 337.6293,-442.8283 346.5169,-413.7715 351.4585,-397.6156 343.1911,-122.3078 354.5169,-109.7715 369.7266,-92.9362 433.4371,-100.6952 455.7836,-96.7715 690.5292,-55.554 784.0185,69.0174 990.0646,-50.7715 1021.9542,-69.3111 1037.6232,-112.8775 1043.9759,-136.2725"/>
<polygon fill="#000000" fill-opacity="0.200000" stroke="#000000" stroke-width="2" stroke-opacity="0.200000" points="1041.9975,-137.0112 1045.5264,-142.2986 1046.0651,-135.9646 1041.9975,-137.0112"/>
</g>
<!-- src/components/Account/SignupPage.js&#45;&gt;src/hooks/useUser.js -->
<g id="edge22" class="edge">
<title>src/components/Account/SignupPage.js-&gt;src/hooks/useUser.js</title>
<path fill="none" stroke="#000000" stroke-width="2" stroke-opacity="0.200000" d="M302.9778,-486.0589C315.3681,-471.5518 337.5647,-442.8085 346.5169,-413.7715 350.7745,-399.9617 345.4803,-165.0489 354.5169,-153.7715 397.1237,-100.5999 434.9031,-115.7715 503.0394,-115.7715 503.0394,-115.7715 503.0394,-115.7715 712.5424,-115.7715 804.2153,-115.7715 834.7448,-88.6465 918.5639,-125.7715 926.0349,-129.0806 924.8284,-134.1456 931.5639,-138.7715 931.6784,-138.8502 931.7935,-138.9285 931.9091,-139.0066"/>
<polygon fill="#000000" fill-opacity="0.200000" stroke="#000000" stroke-width="2" stroke-opacity="0.200000" points="931.1733,-141.0149 937.3965,-142.3122 933.3406,-137.4173 931.1733,-141.0149"/>
</g>
<!-- src/components/Account/PasswordBox.js -->
<g id="node20" class="node">
<title>src/components/Account/PasswordBox.js</title>
<g id="a_node20"><a xlink:href="src/components/Account/PasswordBox.js" xlink:title="PasswordBox.js">
<path fill="#ffffcc" stroke="#000000" d="M441.5869,-520.0726C441.5869,-520.0726 373.9723,-520.0726 373.9723,-520.0726 370.872,-520.0726 367.7716,-516.9722 367.7716,-513.8719 367.7716,-513.8719 367.7716,-507.6712 367.7716,-507.6712 367.7716,-504.5708 370.872,-501.4705 373.9723,-501.4705 373.9723,-501.4705 441.5869,-501.4705 441.5869,-501.4705 444.6872,-501.4705 447.7876,-504.5708 447.7876,-507.6712 447.7876,-507.6712 447.7876,-513.8719 447.7876,-513.8719 447.7876,-516.9722 444.6872,-520.0726 441.5869,-520.0726"/>
<text text-anchor="start" x="375.7756" y="-508.0715" font-family="Helvetica,sans-Serif" font-size="9.00" fill="#000000">PasswordBox.js</text>
</a>
</g>
</g>
<!-- src/components/Account/SignupPage.js&#45;&gt;src/components/Account/PasswordBox.js -->
<g id="edge23" class="edge">
<title>src/components/Account/SignupPage.js-&gt;src/components/Account/PasswordBox.js</title>
<path fill="none" stroke="#000000" stroke-width="2" stroke-opacity="0.200000" d="M331.4326,-500.6831C340.964,-501.9425 351.3354,-503.313 361.2731,-504.6262"/>
<polygon fill="#000000" fill-opacity="0.200000" stroke="#000000" stroke-width="2" stroke-opacity="0.200000" points="361.1699,-506.7307 367.3933,-505.4349 361.7202,-502.5669 361.1699,-506.7307"/>
</g>
<!-- src/components/Account/UserPage.js&#45;&gt;src/hooks/useAlert.js -->
<g id="edge24" class="edge">
<title>src/components/Account/UserPage.js-&gt;src/hooks/useAlert.js</title>
<path fill="none" stroke="#000000" stroke-width="2" stroke-opacity="0.200000" d="M326.81,-523.409C334.4204,-521.0275 341.7016,-517.1219 346.5169,-510.7715 357.7651,-495.9374 342.0049,-189.5563 354.5169,-175.7715 376.8617,-151.1536 469.7929,-157.7715 503.0394,-157.7715 503.0394,-157.7715 503.0394,-157.7715 606.2882,-157.7715 625.547,-157.7715 764.6977,-165.0377 779.5449,-152.7715 792.1807,-142.3323 774.7598,-127.0274 787.5449,-116.7715 832.9673,-80.335 860.8434,-109.0806 918.5639,-116.7715 952.2114,-121.2549 989.525,-132.0415 1015.3301,-140.4645"/>
<polygon fill="#000000" fill-opacity="0.200000" stroke="#000000" stroke-width="2" stroke-opacity="0.200000" points="1014.9507,-142.5508 1021.3067,-142.4403 1016.2691,-138.5631 1014.9507,-142.5508"/>
</g>
<!-- src/components/Account/UserPage.js&#45;&gt;src/hooks/useUser.js -->
<g id="edge25" class="edge">
<title>src/components/Account/UserPage.js-&gt;src/hooks/useUser.js</title>
<path fill="none" stroke="#000000" stroke-width="2" stroke-opacity="0.200000" d="M327.0008,-523.2614C334.5137,-520.8731 341.6999,-517.0011 346.5169,-510.7715 359.2383,-494.3194 346.2597,-342.8588 354.5169,-323.7715 392.018,-237.0839 408.588,-171.7715 503.0394,-171.7715 503.0394,-171.7715 503.0394,-171.7715 606.2882,-171.7715 644.8538,-171.7715 749.0636,-185.3976 779.5449,-161.7715 788.7655,-154.6246 778.1221,-143.6497 787.5449,-136.7715 831.413,-104.7499 899.1784,-125.1335 935.6004,-140.0873"/>
<polygon fill="#000000" fill-opacity="0.200000" stroke="#000000" stroke-width="2" stroke-opacity="0.200000" points="934.8236,-142.0387 941.1684,-142.4318 936.4536,-138.1679 934.8236,-142.0387"/>
</g>
<!-- src/components/Account/UserPage.js&#45;&gt;src/components/IconButtons/GithubButton.js -->
<g id="edge26" class="edge">
<title>src/components/Account/UserPage.js-&gt;src/components/IconButtons/GithubButton.js</title>
<path fill="none" stroke="#000000" stroke-width="2" stroke-opacity="0.200000" d="M326.8107,-530.4321C334.3262,-532.8183 341.5612,-536.6517 346.5169,-542.7715 359.2922,-558.5478 341.6998,-618.0292 354.5169,-633.7715 357.0373,-636.8671 360.1327,-639.3801 363.5518,-641.418"/>
<polygon fill="#000000" fill-opacity="0.200000" stroke="#000000" stroke-width="2" stroke-opacity="0.200000" points="362.8521,-643.417 369.155,-644.2447 364.7439,-639.6672 362.8521,-643.417"/>
</g>
<!-- src/components/Account/UserPage.js&#45;&gt;src/components/IconButtons/GoogleButton.js -->
<g id="edge27" class="edge">
<title>src/components/Account/UserPage.js-&gt;src/components/IconButtons/GoogleButton.js</title>
<path fill="none" stroke="#000000" stroke-width="2" stroke-opacity="0.200000" d="M326.8364,-530.7241C334.2591,-533.1123 341.4436,-536.8735 346.5169,-542.7715 362.3385,-561.165 339.5824,-577.6508 354.5169,-596.7715 357.5047,-600.5968 361.273,-603.7624 365.4187,-606.3809"/>
<polygon fill="#000000" fill-opacity="0.200000" stroke="#000000" stroke-width="2" stroke-opacity="0.200000" points="364.5796,-608.3177 370.8413,-609.4135 366.6297,-604.652 364.5796,-608.3177"/>
</g>
<!-- src/components/Account/UserPage.js&#45;&gt;src/components/IconButtons/TwitterButton.js -->
<g id="edge28" class="edge">
<title>src/components/Account/UserPage.js-&gt;src/components/IconButtons/TwitterButton.js</title>
<path fill="none" stroke="#000000" stroke-width="2" stroke-opacity="0.200000" d="M326.9604,-530.3131C334.4738,-532.7009 341.6704,-536.5648 346.5169,-542.7715 367.4706,-569.6062 333.492,-668.9926 354.5169,-695.7715 356.9429,-698.8614 359.9431,-701.3733 363.2739,-703.4128"/>
<polygon fill="#000000" fill-opacity="0.200000" stroke="#000000" stroke-width="2" stroke-opacity="0.200000" points="362.4509,-705.3515 368.7448,-706.2442 364.3814,-701.6214 362.4509,-705.3515"/>
</g>
<!-- src/components/Account/UserPage.js&#45;&gt;src/components/Account/PasswordBox.js -->
<g id="edge29" class="edge">
<title>src/components/Account/UserPage.js-&gt;src/components/Account/PasswordBox.js</title>
<path fill="none" stroke="#000000" stroke-width="2" stroke-opacity="0.200000" d="M326.7924,-522.1866C337.6157,-520.661 349.8862,-518.9315 361.543,-517.2885"/>
<polygon fill="#000000" fill-opacity="0.200000" stroke="#000000" stroke-width="2" stroke-opacity="0.200000" points="361.9238,-519.3557 367.572,-516.4387 361.3376,-515.1968 361.9238,-519.3557"/>
</g>
<!-- src/components/ItemForm/ItemCreator.js&#45;&gt;src/hooks/useItems.js -->
<g id="edge36" class="edge">
<title>src/components/ItemForm/ItemCreator.js-&gt;src/hooks/useItems.js</title>
<path fill="none" stroke="#000000" stroke-width="2" stroke-opacity="0.200000" d="M330.5147,-370.0387C336.721,-367.6134 342.4643,-364.033 346.5169,-358.7715 360.4269,-340.7124 338.6274,-170.1159 354.5169,-153.7715 377.5754,-130.0529 469.9597,-143.7715 503.0394,-143.7715 503.0394,-143.7715 503.0394,-143.7715 606.2882,-143.7715 682.3122,-143.7715 771.2346,-147.4901 820.1302,-149.8567"/>
<polygon fill="#000000" fill-opacity="0.200000" stroke="#000000" stroke-width="2" stroke-opacity="0.200000" points="820.0848,-151.9569 826.1802,-150.1526 820.29,-147.7619 820.0848,-151.9569"/>
</g>
<!-- src/components/ItemForm/ItemForm.js -->
<g id="node29" class="node">
<title>src/components/ItemForm/ItemForm.js</title>
<g id="a_node29"><a xlink:href="src/components/ItemForm/ItemForm.js" xlink:title="ItemForm.js">
<path fill="#ffffcc" stroke="#000000" d="M433.5738,-356.0726C433.5738,-356.0726 381.9854,-356.0726 381.9854,-356.0726 378.885,-356.0726 375.7847,-352.9722 375.7847,-349.8719 375.7847,-349.8719 375.7847,-343.6712 375.7847,-343.6712 375.7847,-340.5708 378.885,-337.4705 381.9854,-337.4705 381.9854,-337.4705 433.5738,-337.4705 433.5738,-337.4705 436.6742,-337.4705 439.7745,-340.5708 439.7745,-343.6712 439.7745,-343.6712 439.7745,-349.8719 439.7745,-349.8719 439.7745,-352.9722 436.6742,-356.0726 433.5738,-356.0726"/>
<text text-anchor="start" x="384.0331" y="-344.0715" font-family="Helvetica,sans-Serif" font-size="9.00" fill="#000000">ItemForm.js</text>
</a>
</g>
</g>
<!-- src/components/ItemForm/ItemCreator.js&#45;&gt;src/components/ItemForm/ItemForm.js -->
<g id="edge37" class="edge">
<title>src/components/ItemForm/ItemCreator.js-&gt;src/components/ItemForm/ItemForm.js</title>
<path fill="none" stroke="#000000" stroke-width="2" stroke-opacity="0.200000" d="M330.8053,-365.758C343.2819,-362.6805 357.2576,-359.2333 369.8415,-356.1293"/>
<polygon fill="#000000" fill-opacity="0.200000" stroke="#000000" stroke-width="2" stroke-opacity="0.200000" points="370.5722,-358.1121 375.8946,-354.6363 369.5663,-354.0343 370.5722,-358.1121"/>
</g>
<!-- src/components/ItemForm/ItemEditor.js&#45;&gt;src/hooks/useItems.js -->
<g id="edge38" class="edge">
<title>src/components/ItemForm/ItemEditor.js-&gt;src/hooks/useItems.js</title>
<path fill="none" stroke="#000000" stroke-width="2" stroke-opacity="0.200000" d="M327.4768,-336.278C334.8871,-333.0337 341.9056,-328.3959 346.5169,-321.7715 358.0814,-305.1586 340.3715,-154.2504 354.5169,-139.7715 400.7505,-92.4479 436.8799,-129.7715 503.0394,-129.7715 503.0394,-129.7715 503.0394,-129.7715 606.2882,-129.7715 683.4194,-129.7715 702.8437,-131.6395 779.5449,-139.7715 792.8108,-141.178 807.2746,-143.2654 820.0767,-145.3066"/>
<polygon fill="#000000" fill-opacity="0.200000" stroke="#000000" stroke-width="2" stroke-opacity="0.200000" points="819.9566,-147.4144 826.2154,-146.3017 820.6288,-143.2686 819.9566,-147.4144"/>
</g>
<!-- src/components/ItemForm/ItemEditor.js&#45;&gt;src/components/ItemForm/ItemForm.js -->
<g id="edge39" class="edge">
<title>src/components/ItemForm/ItemEditor.js-&gt;src/components/ItemForm/ItemForm.js</title>
<path fill="none" stroke="#000000" stroke-width="2" stroke-opacity="0.200000" d="M327.4019,-344.6473C340.6814,-344.9982 356.0604,-345.4047 369.7887,-345.7675"/>
<polygon fill="#000000" fill-opacity="0.200000" stroke="#000000" stroke-width="2" stroke-opacity="0.200000" points="369.9133,-347.8714 375.9667,-345.9308 370.0243,-343.6729 369.9133,-347.8714"/>
</g>
<!-- src/components/ItemLists/ItemList.js&#45;&gt;src/hooks/useItems.js -->
<g id="edge47" class="edge">
<title>src/components/ItemLists/ItemList.js-&gt;src/hooks/useItems.js</title>
<path fill="none" stroke="#000000" stroke-width="2" stroke-opacity="0.200000" d="M508.1507,-487.3711C530.3516,-446.7818 619.1936,-286.8876 661.54,-248.7715 705.1221,-209.5432 740.5308,-233.5454 779.5449,-189.7715 786.4674,-182.0045 779.7514,-174.6641 787.5449,-167.7715 796.5498,-159.8075 808.7207,-155.5828 820.3616,-153.4066"/>
<polygon fill="#000000" fill-opacity="0.200000" stroke="#000000" stroke-width="2" stroke-opacity="0.200000" points="820.7869,-155.4654 826.3811,-152.4463 820.1252,-151.3178 820.7869,-155.4654"/>
</g>
<!-- src/components/Generic/PillSelector.js -->
<g id="node26" class="node">
<title>src/components/Generic/PillSelector.js</title>
<g id="a_node26"><a xlink:href="src/components/Generic/PillSelector.js" xlink:title="PillSelector.js">
<path fill="#ffffcc" stroke="#000000" d="M885.851,-422.0726C885.851,-422.0726 828.2578,-422.0726 828.2578,-422.0726 825.1575,-422.0726 822.0571,-418.9722 822.0571,-415.8719 822.0571,-415.8719 822.0571,-409.6712 822.0571,-409.6712 822.0571,-406.5708 825.1575,-403.4705 828.2578,-403.4705 828.2578,-403.4705 885.851,-403.4705 885.851,-403.4705 888.9513,-403.4705 892.0517,-406.5708 892.0517,-409.6712 892.0517,-409.6712 892.0517,-415.8719 892.0517,-415.8719 892.0517,-418.9722 888.9513,-422.0726 885.851,-422.0726"/>
<text text-anchor="start" x="830.0557" y="-410.0715" font-family="Helvetica,sans-Serif" font-size="9.00" fill="#000000">PillSelector.js</text>
</a>
</g>
</g>
<!-- src/components/ItemLists/ItemList.js&#45;&gt;src/components/Generic/PillSelector.js -->
<g id="edge48" class="edge">
<title>src/components/ItemLists/ItemList.js-&gt;src/components/Generic/PillSelector.js</title>
<path fill="none" stroke="#000000" stroke-width="2" stroke-opacity="0.200000" d="M506.5045,-506.1313C513.1738,-522.5919 529.5257,-556.2575 556.0365,-569.7715 644.5383,-614.8857 707.3409,-637.9949 779.5449,-569.7715 790.9507,-558.9945 777.4285,-440.7671 787.5449,-428.7715 794.6176,-420.385 805.1197,-415.8869 815.8306,-413.5902"/>
<polygon fill="#000000" fill-opacity="0.200000" stroke="#000000" stroke-width="2" stroke-opacity="0.200000" points="816.2434,-415.6499 821.7821,-412.5301 815.5068,-411.5149 816.2434,-415.6499"/>
</g>
<!-- src/components/ItemLists/PictureList/PictureItemList.js -->
<g id="node31" class="node">
<title>src/components/ItemLists/PictureList/PictureItemList.js</title>
<g id="a_node31"><a xlink:href="src/components/ItemLists/PictureList/PictureItemList.js" xlink:title="PictureItemList.js">
<path fill="#ffffcc" stroke="#000000" d="M642.0925,-453.0726C642.0925,-453.0726 570.484,-453.0726 570.484,-453.0726 567.3837,-453.0726 564.2833,-449.9722 564.2833,-446.8719 564.2833,-446.8719 564.2833,-440.6712 564.2833,-440.6712 564.2833,-437.5708 567.3837,-434.4705 570.484,-434.4705 570.484,-434.4705 642.0925,-434.4705 642.0925,-434.4705 645.1928,-434.4705 648.2932,-437.5708 648.2932,-440.6712 648.2932,-440.6712 648.2932,-446.8719 648.2932,-446.8719 648.2932,-449.9722 645.1928,-453.0726 642.0925,-453.0726"/>
<text text-anchor="start" x="572.0365" y="-441.0715" font-family="Helvetica,sans-Serif" font-size="9.00" fill="#000000">PictureItemList.js</text>
</a>
</g>
</g>
<!-- src/components/ItemLists/ItemList.js&#45;&gt;src/components/ItemLists/PictureList/PictureItemList.js -->
<g id="edge49" class="edge">
<title>src/components/ItemLists/ItemList.js-&gt;src/components/ItemLists/PictureList/PictureItemList.js</title>
<path fill="none" stroke="#000000" stroke-width="2" stroke-opacity="0.200000" d="M513.182,-487.1558C523.2915,-478.0718 539.6351,-464.6911 556.0365,-456.7715 556.9849,-456.3135 557.9515,-455.8703 558.9326,-455.4414"/>
<polygon fill="#000000" fill-opacity="0.200000" stroke="#000000" stroke-width="2" stroke-opacity="0.200000" points="559.895,-457.3182 564.6849,-453.1389 558.3341,-453.419 559.895,-457.3182"/>
</g>
<!-- src/components/ItemLists/Searchbar.js -->
<g id="node32" class="node">
<title>src/components/ItemLists/Searchbar.js</title>
<g id="a_node32"><a xlink:href="src/components/ItemLists/Searchbar.js" xlink:title="Searchbar.js">
<path fill="#ffffcc" stroke="#000000" d="M633.0974,-506.0726C633.0974,-506.0726 579.4791,-506.0726 579.4791,-506.0726 576.3788,-506.0726 573.2784,-502.9722 573.2784,-499.8719 573.2784,-499.8719 573.2784,-493.6712 573.2784,-493.6712 573.2784,-490.5708 576.3788,-487.4705 579.4791,-487.4705 579.4791,-487.4705 633.0974,-487.4705 633.0974,-487.4705 636.1977,-487.4705 639.2981,-490.5708 639.2981,-493.6712 639.2981,-493.6712 639.2981,-499.8719 639.2981,-499.8719 639.2981,-502.9722 636.1977,-506.0726 633.0974,-506.0726"/>
<text text-anchor="start" x="581.0342" y="-494.0715" font-family="Helvetica,sans-Serif" font-size="9.00" fill="#000000">Searchbar.js</text>
</a>
</g>
</g>
<!-- src/components/ItemLists/ItemList.js&#45;&gt;src/components/ItemLists/Searchbar.js -->
<g id="edge50" class="edge">
<title>src/components/ItemLists/ItemList.js-&gt;src/components/ItemLists/Searchbar.js</title>
<path fill="none" stroke="#000000" stroke-width="2" stroke-opacity="0.200000" d="M531.2526,-496.7715C542.235,-496.7715 555.0108,-496.7715 566.874,-496.7715"/>
<polygon fill="#000000" fill-opacity="0.200000" stroke="#000000" stroke-width="2" stroke-opacity="0.200000" points="566.9802,-498.8716 572.9801,-496.7715 566.9801,-494.6716 566.9802,-498.8716"/>
</g>
<!-- src/components/ItemLists/TableList/TableItemList.js -->
<g id="node33" class="node">
<title>src/components/ItemLists/TableList/TableItemList.js</title>
<g id="a_node33"><a xlink:href="src/components/ItemLists/TableList/TableItemList.js" xlink:title="TableItemList.js">
<path fill="#ffffcc" stroke="#000000" d="M639.5929,-540.0726C639.5929,-540.0726 572.9836,-540.0726 572.9836,-540.0726 569.8832,-540.0726 566.7828,-536.9722 566.7828,-533.8719 566.7828,-533.8719 566.7828,-527.6712 566.7828,-527.6712 566.7828,-524.5708 569.8832,-521.4705 572.9836,-521.4705 572.9836,-521.4705 639.5929,-521.4705 639.5929,-521.4705 642.6933,-521.4705 645.7937,-524.5708 645.7937,-527.6712 645.7937,-527.6712 645.7937,-533.8719 645.7937,-533.8719 645.7937,-536.9722 642.6933,-540.0726 639.5929,-540.0726"/>
<text text-anchor="start" x="574.7855" y="-528.0715" font-family="Helvetica,sans-Serif" font-size="9.00" fill="#000000">TableItemList.js</text>
</a>
</g>
</g>
<!-- src/components/ItemLists/ItemList.js&#45;&gt;src/components/ItemLists/TableList/TableItemList.js -->
<g id="edge51" class="edge">
<title>src/components/ItemLists/ItemList.js-&gt;src/components/ItemLists/TableList/TableItemList.js</title>
<path fill="none" stroke="#000000" stroke-width="2" stroke-opacity="0.200000" d="M524.7338,-506.0732C534.2414,-509.9654 545.5922,-514.3658 556.0365,-517.7715 557.9642,-518.4001 559.9412,-519.0186 561.944,-519.6239"/>
<polygon fill="#000000" fill-opacity="0.200000" stroke="#000000" stroke-width="2" stroke-opacity="0.200000" points="561.6578,-521.7282 568.0061,-521.3975 562.8371,-517.6971 561.6578,-521.7282"/>
</g>
<!-- src/components/Navigation/Navbar.js&#45;&gt;src/hooks/useUser.js -->
<g id="edge61" class="edge">
<title>src/components/Navigation/Navbar.js-&gt;src/hooks/useUser.js</title>
<path fill="none" stroke="#000000" stroke-width="2" stroke-opacity="0.200000" d="M321.5227,-280.727C330.8918,-278.5859 340.5217,-274.4886 346.5169,-266.7715 358.0499,-251.9262 340.9135,-110.7462 354.5169,-97.7715 364.785,-87.9779 853.4978,-69.4987 918.5639,-111.7715 928.4235,-118.1772 923.5556,-127.0886 931.9328,-137.9426"/>
<polygon fill="#000000" fill-opacity="0.200000" stroke="#000000" stroke-width="2" stroke-opacity="0.200000" points="930.4151,-139.3943 936.0345,-142.3663 933.4949,-136.5387 930.4151,-139.3943"/>
</g>
<!-- src/components/IconButtons/IconButton.js -->
<g id="node28" class="node">
<title>src/components/IconButtons/IconButton.js</title>
<g id="a_node28"><a xlink:href="src/components/IconButtons/IconButton.js" xlink:title="IconButton.js">
<path fill="#ffffcc" stroke="#000000" d="M530.8578,-674.0726C530.8578,-674.0726 475.221,-674.0726 475.221,-674.0726 472.1206,-674.0726 469.0203,-670.9722 469.0203,-667.8719 469.0203,-667.8719 469.0203,-661.6712 469.0203,-661.6712 469.0203,-658.5708 472.1206,-655.4705 475.221,-655.4705 475.221,-655.4705 530.8578,-655.4705 530.8578,-655.4705 533.9582,-655.4705 537.0585,-658.5708 537.0585,-661.6712 537.0585,-661.6712 537.0585,-667.8719 537.0585,-667.8719 537.0585,-670.9722 533.9582,-674.0726 530.8578,-674.0726"/>
<text text-anchor="start" x="477.0298" y="-662.0715" font-family="Helvetica,sans-Serif" font-size="9.00" fill="#000000">IconButton.js</text>
</a>
</g>
</g>
<!-- src/components/IconButtons/GithubButton.js&#45;&gt;src/components/IconButtons/IconButton.js -->
<g id="edge33" class="edge">
<title>src/components/IconButtons/GithubButton.js-&gt;src/components/IconButtons/IconButton.js</title>
<path fill="none" stroke="#000000" stroke-width="2" stroke-opacity="0.200000" d="M446.5254,-655.8726C451.8567,-656.7121 457.342,-657.5758 462.7011,-658.4197"/>
<polygon fill="#000000" fill-opacity="0.200000" stroke="#000000" stroke-width="2" stroke-opacity="0.200000" points="462.6638,-660.5396 468.9175,-659.3985 463.3172,-656.3907 462.6638,-660.5396"/>
</g>
<!-- src/components/IconButtons/GoogleButton.js&#45;&gt;src/components/IconButtons/IconButton.js -->
<g id="edge34" class="edge">
<title>src/components/IconButtons/GoogleButton.js-&gt;src/components/IconButtons/IconButton.js</title>
<path fill="none" stroke="#000000" stroke-width="2" stroke-opacity="0.200000" d="M439.4585,-628.1074C444.9933,-630.0824 450.6264,-632.3203 455.7836,-634.7715 465.8139,-639.5388 476.3062,-646.0282 484.8491,-651.7522"/>
<polygon fill="#000000" fill-opacity="0.200000" stroke="#000000" stroke-width="2" stroke-opacity="0.200000" points="483.755,-653.5479 489.8948,-655.195 486.1223,-650.0786 483.755,-653.5479"/>
</g>
<!-- src/components/IconButtons/TwitterButton.js&#45;&gt;src/components/IconButtons/IconButton.js -->
<g id="edge35" class="edge">
<title>src/components/IconButtons/TwitterButton.js-&gt;src/components/IconButtons/IconButton.js</title>
<path fill="none" stroke="#000000" stroke-width="2" stroke-opacity="0.200000" d="M439.7447,-702.4081C445.1938,-700.4485 450.7239,-698.2228 455.7836,-695.7715 466.1673,-690.7408 476.9826,-683.7907 485.642,-677.7461"/>
<polygon fill="#000000" fill-opacity="0.200000" stroke="#000000" stroke-width="2" stroke-opacity="0.200000" points="487.0605,-679.3142 490.732,-674.1247 484.6256,-675.892 487.0605,-679.3142"/>
</g>
<!-- src/components/Generic/ItemImage.js -->
<g id="node22" class="node">
<title>src/components/Generic/ItemImage.js</title>
<g id="a_node22"><a xlink:href="src/components/Generic/ItemImage.js" xlink:title="ItemImage.js">
<path fill="#ffffcc" stroke="#000000" d="M884.3616,-360.0726C884.3616,-360.0726 829.7472,-360.0726 829.7472,-360.0726 826.6469,-360.0726 823.5465,-356.9722 823.5465,-353.8719 823.5465,-353.8719 823.5465,-347.6712 823.5465,-347.6712 823.5465,-344.5708 826.6469,-341.4705 829.7472,-341.4705 829.7472,-341.4705 884.3616,-341.4705 884.3616,-341.4705 887.4619,-341.4705 890.5623,-344.5708 890.5623,-347.6712 890.5623,-347.6712 890.5623,-353.8719 890.5623,-353.8719 890.5623,-356.9722 887.4619,-360.0726 884.3616,-360.0726"/>
<text text-anchor="start" x="831.3013" y="-348.0715" font-family="Helvetica,sans-Serif" font-size="9.00" fill="#000000">ItemImage.js</text>
</a>
</g>
</g>
<!-- src/hooks/useIntersectionObserver.js -->
<g id="node23" class="node">
<title>src/hooks/useIntersectionObserver.js</title>
<g id="a_node23"><a xlink:href="src/hooks/useIntersectionObserver.js" xlink:title="useIntersectionObserver.js">
<path fill="#ffffcc" stroke="#000000" d="M912.3727,-192.0726C912.3727,-192.0726 801.7361,-192.0726 801.7361,-192.0726 798.6357,-192.0726 795.5354,-188.9722 795.5354,-185.8719 795.5354,-185.8719 795.5354,-179.6712 795.5354,-179.6712 795.5354,-176.5708 798.6357,-173.4705 801.7361,-173.4705 801.7361,-173.4705 912.3727,-173.4705 912.3727,-173.4705 915.4731,-173.4705 918.5734,-176.5708 918.5734,-179.6712 918.5734,-179.6712 918.5734,-185.8719 918.5734,-185.8719 918.5734,-188.9722 915.4731,-192.0726 912.3727,-192.0726"/>
<text text-anchor="start" x="803.5449" y="-180.0715" font-family="Helvetica,sans-Serif" font-size="9.00" fill="#000000">useIntersectionObserver.js</text>
</a>
</g>
</g>
<!-- src/components/Generic/ItemImage.js&#45;&gt;src/hooks/useIntersectionObserver.js -->
<g id="edge30" class="edge">
<title>src/components/Generic/ItemImage.js-&gt;src/hooks/useIntersectionObserver.js</title>
<path fill="none" stroke="#000000" stroke-width="2" stroke-opacity="0.200000" d="M857.0544,-341.1758C857.0544,-293.5818 857.0544,-245.9879 857.0544,-198.3939"/>
<polygon fill="#000000" fill-opacity="0.200000" stroke="#000000" stroke-width="2" stroke-opacity="0.200000" points="859.1545,-198.2871 857.0544,-192.2871 854.9545,-198.2872 859.1545,-198.2871"/>
</g>
<!-- src/components/Generic/ItemLink.js -->
<g id="node24" class="node">
<title>src/components/Generic/ItemLink.js</title>
<g id="a_node24"><a xlink:href="src/components/Generic/ItemLink.js" xlink:title="ItemLink.js">
<path fill="#ffffcc" stroke="#000000" d="M880.3566,-453.0726C880.3566,-453.0726 833.7522,-453.0726 833.7522,-453.0726 830.6519,-453.0726 827.5515,-449.9722 827.5515,-446.8719 827.5515,-446.8719 827.5515,-440.6712 827.5515,-440.6712 827.5515,-437.5708 830.6519,-434.4705 833.7522,-434.4705 833.7522,-434.4705 880.3566,-434.4705 880.3566,-434.4705 883.4569,-434.4705 886.5573,-437.5708 886.5573,-440.6712 886.5573,-440.6712 886.5573,-446.8719 886.5573,-446.8719 886.5573,-449.9722 883.4569,-453.0726 880.3566,-453.0726"/>
<text text-anchor="start" x="835.5529" y="-441.0715" font-family="Helvetica,sans-Serif" font-size="9.00" fill="#000000">ItemLink.js</text>
</a>
</g>
</g>
<!-- src/components/Generic/ItemSelect.js -->
<g id="node25" class="node">
<title>src/components/Generic/ItemSelect.js</title>
<g id="a_node25"><a xlink:href="src/components/Generic/ItemSelect.js" xlink:title="ItemSelect.js">
<path fill="#ffffcc" stroke="#000000" d="M884.3616,-391.0726C884.3616,-391.0726 829.7472,-391.0726 829.7472,-391.0726 826.6469,-391.0726 823.5465,-387.9722 823.5465,-384.8719 823.5465,-384.8719 823.5465,-378.6712 823.5465,-378.6712 823.5465,-375.5708 826.6469,-372.4705 829.7472,-372.4705 829.7472,-372.4705 884.3616,-372.4705 884.3616,-372.4705 887.4619,-372.4705 890.5623,-375.5708 890.5623,-378.6712 890.5623,-378.6712 890.5623,-384.8719 890.5623,-384.8719 890.5623,-387.9722 887.4619,-391.0726 884.3616,-391.0726"/>
<text text-anchor="start" x="831.3013" y="-379.0715" font-family="Helvetica,sans-Serif" font-size="9.00" fill="#000000">ItemSelect.js</text>
</a>
</g>
</g>
<!-- src/components/Generic/ItemSelect.js&#45;&gt;src/hooks/useItems.js -->
<g id="edge31" class="edge">
<title>src/components/Generic/ItemSelect.js-&gt;src/hooks/useItems.js</title>
<path fill="none" stroke="#000000" stroke-width="2" stroke-opacity="0.200000" d="M823.2012,-382.9417C806.2925,-381.4167 788.4089,-375.8362 783.5449,-359.7715 780.5505,-349.8816 780.5505,-183.6615 783.5449,-173.7715 788.1115,-158.6889 804.1545,-152.8479 820.0923,-150.928"/>
<polygon fill="#000000" fill-opacity="0.200000" stroke="#000000" stroke-width="2" stroke-opacity="0.200000" points="820.6195,-152.989 826.4065,-150.3582 820.242,-148.806 820.6195,-152.989"/>
</g>
<!-- src/components/IconButtons/FacebookButton.js -->
<g id="node27" class="node">
<title>src/components/IconButtons/FacebookButton.js</title>
<g id="a_node27"><a xlink:href="src/components/IconButtons/FacebookButton.js" xlink:title="FacebookButton.js">
<path fill="#ffffcc" stroke="#000000" d="M446.6055,-690.0726C446.6055,-690.0726 368.9537,-690.0726 368.9537,-690.0726 365.8533,-690.0726 362.753,-686.9722 362.753,-683.8719 362.753,-683.8719 362.753,-677.6712 362.753,-677.6712 362.753,-674.5708 365.8533,-671.4705 368.9537,-671.4705 368.9537,-671.4705 446.6055,-671.4705 446.6055,-671.4705 449.7059,-671.4705 452.8062,-674.5708 452.8062,-677.6712 452.8062,-677.6712 452.8062,-683.8719 452.8062,-683.8719 452.8062,-686.9722 449.7059,-690.0726 446.6055,-690.0726"/>
<text text-anchor="start" x="370.5169" y="-678.0715" font-family="Helvetica,sans-Serif" font-size="9.00" fill="#000000">FacebookButton.js</text>
</a>
</g>
</g>
<!-- src/components/IconButtons/FacebookButton.js&#45;&gt;src/components/IconButtons/IconButton.js -->
<g id="edge32" class="edge">
<title>src/components/IconButtons/FacebookButton.js-&gt;src/components/IconButtons/IconButton.js</title>
<path fill="none" stroke="#000000" stroke-width="2" stroke-opacity="0.200000" d="M452.8988,-673.1932C456.2651,-672.6278 459.6481,-672.0596 462.9804,-671.4999"/>
<polygon fill="#000000" fill-opacity="0.200000" stroke="#000000" stroke-width="2" stroke-opacity="0.200000" points="463.3398,-673.569 468.9091,-670.5041 462.6441,-669.427 463.3398,-673.569"/>
</g>
<!-- src/components/ItemForm/ItemForm.js&#45;&gt;src/hooks/useAlert.js -->
<g id="edge40" class="edge">
<title>src/components/ItemForm/ItemForm.js-&gt;src/hooks/useAlert.js</title>
<path fill="none" stroke="#000000" stroke-width="2" stroke-opacity="0.200000" d="M434.3722,-337.4504C472.1079,-325.0768 543.5855,-304.7715 606.2882,-304.7715 606.2882,-304.7715 606.2882,-304.7715 857.0544,-304.7715 944.7933,-304.7715 1015.1162,-204.9025 1038.8941,-166.5373"/>
<polygon fill="#000000" fill-opacity="0.200000" stroke="#000000" stroke-width="2" stroke-opacity="0.200000" points="1040.731,-167.5586 1042.0611,-161.3423 1037.1448,-165.3723 1040.731,-167.5586"/>
</g>
<!-- src/components/ItemForm/ItemForm.js&#45;&gt;src/hooks/useItems.js -->
<g id="edge41" class="edge">
<title>src/components/ItemForm/ItemForm.js-&gt;src/hooks/useItems.js</title>
<path fill="none" stroke="#000000" stroke-width="2" stroke-opacity="0.200000" d="M418.9428,-337.1822C452.7306,-308.7962 557.9434,-225.042 661.54,-190.7715 711.7335,-174.1671 732.0764,-199.0488 779.5449,-175.7715 784.0596,-173.5576 783.1462,-170.2079 787.5449,-167.7715 797.5074,-162.2534 809.2829,-158.6351 820.2829,-156.2637"/>
<polygon fill="#000000" fill-opacity="0.200000" stroke="#000000" stroke-width="2" stroke-opacity="0.200000" points="820.8212,-158.298 826.2978,-155.0705 820.0039,-154.1782 820.8212,-158.298"/>
</g>
<!-- src/components/ItemForm/ItemForm.js&#45;&gt;src/components/ItemLists/ItemList.js -->
<g id="edge44" class="edge">
<title>src/components/ItemForm/ItemForm.js-&gt;src/components/ItemLists/ItemList.js</title>
<path fill="none" stroke="#000000" stroke-width="2" stroke-opacity="0.200000" d="M413.7385,-356.1547C429.8435,-381.5143 474.3304,-451.5652 493.7591,-482.1583"/>
<polygon fill="#000000" fill-opacity="0.200000" stroke="#000000" stroke-width="2" stroke-opacity="0.200000" points="492.0934,-483.4527 497.0827,-487.3919 495.6388,-481.2011 492.0934,-483.4527"/>
</g>
<!-- src/components/ItemForm/ItemForm.js&#45;&gt;src/components/Generic/ItemSelect.js -->
<g id="edge42" class="edge">
<title>src/components/ItemForm/ItemForm.js-&gt;src/components/Generic/ItemSelect.js</title>
<path fill="none" stroke="#000000" stroke-width="2" stroke-opacity="0.200000" d="M439.8285,-345.4737C448.347,-345.1828 457.5419,-344.9174 466.0423,-344.7715 547.1405,-343.38 567.7104,-338.0317 648.54,-344.7715 707.3755,-349.6774 721.4461,-356.2731 779.5449,-366.7715 791.8346,-368.9923 805.195,-371.5324 817.307,-373.8833"/>
<polygon fill="#000000" fill-opacity="0.200000" stroke="#000000" stroke-width="2" stroke-opacity="0.200000" points="817.2239,-376.0065 823.5148,-375.0927 818.0271,-371.884 817.2239,-376.0065"/>
</g>
<!-- src/components/ItemForm/ItemForm.js&#45;&gt;src/components/Generic/PillSelector.js -->
<g id="edge43" class="edge">
<title>src/components/ItemForm/ItemForm.js-&gt;src/components/Generic/PillSelector.js</title>
<path fill="none" stroke="#000000" stroke-width="2" stroke-opacity="0.200000" d="M439.6312,-347.7412C468.1247,-348.8638 510.9873,-351.1822 548.0365,-355.7715 644.8703,-367.7663 757.2363,-390.8238 816.1637,-403.6308"/>
<polygon fill="#000000" fill-opacity="0.200000" stroke="#000000" stroke-width="2" stroke-opacity="0.200000" points="815.7334,-405.6863 822.0431,-404.9132 816.6285,-401.5828 815.7334,-405.6863"/>
</g>
<!-- src/components/ItemForm/PictureForm.js -->
<g id="node30" class="node">
<title>src/components/ItemForm/PictureForm.js</title>
<g id="a_node30"><a xlink:href="src/components/ItemForm/PictureForm.js" xlink:title="PictureForm.js">
<path fill="#ffffcc" stroke="#000000" d="M533.8329,-380.0726C533.8329,-380.0726 472.2459,-380.0726 472.2459,-380.0726 469.1456,-380.0726 466.0452,-376.9722 466.0452,-373.8719 466.0452,-373.8719 466.0452,-367.6712 466.0452,-367.6712 466.0452,-364.5708 469.1456,-361.4705 472.2459,-361.4705 472.2459,-361.4705 533.8329,-361.4705 533.8329,-361.4705 536.9332,-361.4705 540.0336,-364.5708 540.0336,-367.6712 540.0336,-367.6712 540.0336,-373.8719 540.0336,-373.8719 540.0336,-376.9722 536.9332,-380.0726 533.8329,-380.0726"/>
<text text-anchor="start" x="474.0423" y="-368.0715" font-family="Helvetica,sans-Serif" font-size="9.00" fill="#000000">PictureForm.js</text>
</a>
</g>
</g>
<!-- src/components/ItemForm/ItemForm.js&#45;&gt;src/components/ItemForm/PictureForm.js -->
<g id="edge45" class="edge">
<title>src/components/ItemForm/ItemForm.js-&gt;src/components/ItemForm/PictureForm.js</title>
<path fill="none" stroke="#000000" stroke-width="2" stroke-opacity="0.200000" d="M439.7647,-354.8299C446.2204,-356.4564 453.1075,-358.1915 459.8733,-359.8961"/>
<polygon fill="#000000" fill-opacity="0.200000" stroke="#000000" stroke-width="2" stroke-opacity="0.200000" points="459.7056,-362.0195 466.0369,-361.449 460.7318,-357.9467 459.7056,-362.0195"/>
</g>
<!-- src/components/ItemForm/PictureForm.js&#45;&gt;src/components/Generic/ItemImage.js -->
<g id="edge46" class="edge">
<title>src/components/ItemForm/PictureForm.js-&gt;src/components/Generic/ItemImage.js</title>
<path fill="none" stroke="#000000" stroke-width="2" stroke-opacity="0.200000" d="M540.2561,-368.669C607.4619,-364.8722 748.4822,-356.9053 817.4172,-353.0108"/>
<polygon fill="#000000" fill-opacity="0.200000" stroke="#000000" stroke-width="2" stroke-opacity="0.200000" points="817.5859,-355.1047 823.4578,-352.6695 817.3489,-350.9114 817.5859,-355.1047"/>
</g>
<!-- src/components/ItemLists/PictureList/PictureItemListItem.js -->
<g id="node34" class="node">
<title>src/components/ItemLists/PictureList/PictureItemListItem.js</title>
<g id="a_node34"><a xlink:href="src/components/ItemLists/PictureList/PictureItemListItem.js" xlink:title="PictureItemListItem.js">
<path fill="#ffffcc" stroke="#000000" d="M757.3466,-453.0726C757.3466,-453.0726 667.7383,-453.0726 667.7383,-453.0726 664.6379,-453.0726 661.5375,-449.9722 661.5375,-446.8719 661.5375,-446.8719 661.5375,-440.6712 661.5375,-440.6712 661.5375,-437.5708 664.6379,-434.4705 667.7383,-434.4705 667.7383,-434.4705 757.3466,-434.4705 757.3466,-434.4705 760.447,-434.4705 763.5474,-437.5708 763.5474,-440.6712 763.5474,-440.6712 763.5474,-446.8719 763.5474,-446.8719 763.5474,-449.9722 760.447,-453.0726 757.3466,-453.0726"/>
<text text-anchor="start" x="669.54" y="-441.0715" font-family="Helvetica,sans-Serif" font-size="9.00" fill="#000000">PictureItemListItem.js</text>
</a>
</g>
</g>
<!-- src/components/ItemLists/PictureList/PictureItemList.js&#45;&gt;src/components/ItemLists/PictureList/PictureItemListItem.js -->
<g id="edge52" class="edge">
<title>src/components/ItemLists/PictureList/PictureItemList.js-&gt;src/components/ItemLists/PictureList/PictureItemListItem.js</title>
<path fill="none" stroke="#000000" stroke-width="2" stroke-opacity="0.200000" d="M648.588,-443.7715C650.6714,-443.7715 652.7781,-443.7715 654.8943,-443.7715"/>
<polygon fill="#000000" fill-opacity="0.200000" stroke="#000000" stroke-width="2" stroke-opacity="0.200000" points="655.2585,-445.8716 661.2585,-443.7715 655.2584,-441.6716 655.2585,-445.8716"/>
</g>
<!-- src/components/ItemLists/TableList/TableItemList.js&#45;&gt;src/hooks/useItems.js -->
<g id="edge56" class="edge">
<title>src/components/ItemLists/TableList/TableItemList.js-&gt;src/hooks/useItems.js</title>
<path fill="none" stroke="#000000" stroke-width="2" stroke-opacity="0.200000" d="M644.9154,-521.2666C646.228,-520.2186 647.446,-519.0576 648.54,-517.7715 675.8668,-485.6466 646.5236,-463.1831 661.54,-423.7715 695.0714,-335.7658 747.6808,-336.3945 779.5449,-247.7715 785.5899,-230.9588 775.7357,-181.1787 787.5449,-167.7715 795.6998,-158.5131 808.0356,-154.0378 820.0628,-152.0248"/>
<polygon fill="#000000" fill-opacity="0.200000" stroke="#000000" stroke-width="2" stroke-opacity="0.200000" points="820.6345,-154.0668 826.3003,-151.1843 820.0736,-149.9045 820.6345,-154.0668"/>
</g>
<!-- src/components/ItemLists/TableList/TableItemList.js&#45;&gt;src/components/Generic/ItemSelect.js -->
<g id="edge57" class="edge">
<title>src/components/ItemLists/TableList/TableItemList.js-&gt;src/components/Generic/ItemSelect.js</title>
<path fill="none" stroke="#000000" stroke-width="2" stroke-opacity="0.200000" d="M634.9548,-540.1006C643.4217,-542.4332 652.7714,-544.6024 661.54,-545.7715 687.5333,-549.2372 760.5084,-563.8068 779.5449,-545.7715 791.5,-534.4452 776.9447,-410.3749 787.5449,-397.7715 794.8754,-389.0557 805.91,-384.5372 817.0411,-382.3252"/>
<polygon fill="#000000" fill-opacity="0.200000" stroke="#000000" stroke-width="2" stroke-opacity="0.200000" points="817.6271,-384.3576 823.2121,-381.3216 816.9528,-380.212 817.6271,-384.3576"/>
</g>
<!-- src/components/ItemLists/TableList/TableItemListItem.js -->
<g id="node35" class="node">
<title>src/components/ItemLists/TableList/TableItemListItem.js</title>
<g id="a_node35"><a xlink:href="src/components/ItemLists/TableList/TableItemListItem.js" xlink:title="TableItemListItem.js">
<path fill="#ffffcc" stroke="#000000" d="M754.3498,-540.0726C754.3498,-540.0726 670.7351,-540.0726 670.7351,-540.0726 667.6347,-540.0726 664.5344,-536.9722 664.5344,-533.8719 664.5344,-533.8719 664.5344,-527.6712 664.5344,-527.6712 664.5344,-524.5708 667.6347,-521.4705 670.7351,-521.4705 670.7351,-521.4705 754.3498,-521.4705 754.3498,-521.4705 757.4502,-521.4705 760.5505,-524.5708 760.5505,-527.6712 760.5505,-527.6712 760.5505,-533.8719 760.5505,-533.8719 760.5505,-536.9722 757.4502,-540.0726 754.3498,-540.0726"/>
<text text-anchor="start" x="672.289" y="-528.0715" font-family="Helvetica,sans-Serif" font-size="9.00" fill="#000000">TableItemListItem.js</text>
</a>
</g>
</g>
<!-- src/components/ItemLists/TableList/TableItemList.js&#45;&gt;src/components/ItemLists/TableList/TableItemListItem.js -->
<g id="edge58" class="edge">
<title>src/components/ItemLists/TableList/TableItemList.js-&gt;src/components/ItemLists/TableList/TableItemListItem.js</title>
<path fill="none" stroke="#000000" stroke-width="2" stroke-opacity="0.200000" d="M645.8534,-530.7715C649.8969,-530.7715 654.0528,-530.7715 658.2185,-530.7715"/>
<polygon fill="#000000" fill-opacity="0.200000" stroke="#000000" stroke-width="2" stroke-opacity="0.200000" points="658.3169,-532.8716 664.3169,-530.7715 658.3168,-528.6716 658.3169,-532.8716"/>
</g>
<!-- src/components/ItemLists/PictureList/PictureItemListItem.js&#45;&gt;src/hooks/useItems.js -->
<g id="edge53" class="edge">
<title>src/components/ItemLists/PictureList/PictureItemListItem.js-&gt;src/hooks/useItems.js</title>
<path fill="none" stroke="#000000" stroke-width="2" stroke-opacity="0.200000" d="M717.7653,-434.4037C730.9067,-410.3064 765.3072,-343.8432 779.5449,-283.7715 782.5244,-271.2003 779.1559,-177.5969 787.5449,-167.7715 795.6988,-158.2216 808.2996,-153.7269 820.5448,-151.781"/>
<polygon fill="#000000" fill-opacity="0.200000" stroke="#000000" stroke-width="2" stroke-opacity="0.200000" points="820.821,-153.8629 826.5065,-151.0195 820.2888,-149.6967 820.821,-153.8629"/>
</g>
<!-- src/components/ItemLists/PictureList/PictureItemListItem.js&#45;&gt;src/components/Generic/ItemImage.js -->
<g id="edge54" class="edge">
<title>src/components/ItemLists/PictureList/PictureItemListItem.js-&gt;src/components/Generic/ItemImage.js</title>
<path fill="none" stroke="#000000" stroke-width="2" stroke-opacity="0.200000" d="M718.9486,-434.2628C730.5732,-417.7923 756.804,-384.0634 787.5449,-366.7715 796.6573,-361.6458 807.3197,-358.1607 817.5185,-355.7916"/>
<polygon fill="#000000" fill-opacity="0.200000" stroke="#000000" stroke-width="2" stroke-opacity="0.200000" points="818.0267,-357.8305 823.4546,-354.5217 817.148,-353.7234 818.0267,-357.8305"/>
</g>
<!-- src/components/ItemLists/PictureList/PictureItemListItem.js&#45;&gt;src/components/Generic/ItemLink.js -->
<g id="edge55" class="edge">
<title>src/components/ItemLists/PictureList/PictureItemListItem.js-&gt;src/components/Generic/ItemLink.js</title>
<path fill="none" stroke="#000000" stroke-width="2" stroke-opacity="0.200000" d="M763.8989,-443.7715C782.8293,-443.7715 803.8537,-443.7715 821.1316,-443.7715"/>
<polygon fill="#000000" fill-opacity="0.200000" stroke="#000000" stroke-width="2" stroke-opacity="0.200000" points="821.3168,-445.8716 827.3167,-443.7715 821.3167,-441.6716 821.3168,-445.8716"/>
</g>
<!-- src/components/ItemLists/TableList/TableItemListItem.js&#45;&gt;src/hooks/useItems.js -->
<g id="edge59" class="edge">
<title>src/components/ItemLists/TableList/TableItemListItem.js-&gt;src/hooks/useItems.js</title>
<path fill="none" stroke="#000000" stroke-width="2" stroke-opacity="0.200000" d="M734.9094,-521.3745C750.4565,-513.5306 770.0311,-500.7258 779.5449,-482.7715 787.7414,-467.3033 776.4699,-181.3285 787.5449,-167.7715 795.4893,-158.0467 808.0466,-153.5156 820.3157,-151.5896"/>
<polygon fill="#000000" fill-opacity="0.200000" stroke="#000000" stroke-width="2" stroke-opacity="0.200000" points="820.601,-153.6704 826.2941,-150.842 820.0798,-149.5028 820.601,-153.6704"/>
</g>
<!-- src/components/ItemLists/TableList/TableItemListItem.js&#45;&gt;src/components/Generic/ItemLink.js -->
<g id="edge60" class="edge">
<title>src/components/ItemLists/TableList/TableItemListItem.js-&gt;src/components/Generic/ItemLink.js</title>
<path fill="none" stroke="#000000" stroke-width="2" stroke-opacity="0.200000" d="M731.4853,-521.4073C746.4518,-513.1261 766.8646,-499.7335 779.5449,-482.7715 786.0252,-474.1031 779.4882,-466.9983 787.5449,-459.7715 796.7292,-451.5333 809.2931,-447.284 821.215,-445.1666"/>
<polygon fill="#000000" fill-opacity="0.200000" stroke="#000000" stroke-width="2" stroke-opacity="0.200000" points="821.7472,-447.2104 827.3695,-444.2439 821.1244,-443.0568 821.7472,-447.2104"/>
</g>
<!-- src/index.js -->
<g id="node37" class="node">
<title>src/index.js</title>
<g id="a_node37"><a xlink:href="src/index.js" xlink:title="index.js">
<path fill="#ffffcc" stroke="#000000" d="M63.7993,-633.0726C63.7993,-633.0726 22.2007,-633.0726 22.2007,-633.0726 19.1004,-633.0726 16,-629.9722 16,-626.8719 16,-626.8719 16,-620.6712 16,-620.6712 16,-617.5708 19.1004,-614.4705 22.2007,-614.4705 22.2007,-614.4705 63.7993,-614.4705 63.7993,-614.4705 66.8996,-614.4705 70,-617.5708 70,-620.6712 70,-620.6712 70,-626.8719 70,-626.8719 70,-629.9722 66.8996,-633.0726 63.7993,-633.0726"/>
<text text-anchor="start" x="27.7477" y="-621.0715" font-family="Helvetica,sans-Serif" font-size="9.00" fill="#000000">index.js</text>
</a>
</g>
</g>
<!-- src/index.js&#45;&gt;src/App.js -->
<g id="edge67" class="edge">
<title>src/index.js-&gt;src/App.js</title>
<path fill="none" stroke="#000000" stroke-width="2" stroke-opacity="0.200000" d="M70.2515,-623.7715C72.3528,-623.7715 74.488,-623.7715 76.6227,-623.7715"/>
<polygon fill="#000000" fill-opacity="0.200000" stroke="#000000" stroke-width="2" stroke-opacity="0.200000" points="76.9899,-625.8716 82.9899,-623.7715 76.9899,-621.6716 76.9899,-625.8716"/>
</g>
</g>
</svg>